<svg width="500" height="500" viewBox="0 0 500 500" fill="none" xmlns="http://www.w3.org/2000/svg">
<rect width="500" height="500" rx="250" fill="#85CAE8"/>
<path d="M385.643 351.409C400.991 373.799 416.053 423.63 374.395 424.296C352.66 424.678 308.428 430.49 299.277 414.674C291.365 400.858 295.178 380.469 290.221 364.748C287.17 355.316 283.071 345.883 280.497 346.169C280.116 346.169 278.877 346.455 278.019 349.504C274.969 359.603 276.208 372.847 275.636 383.899C274.397 408.099 276.398 422.391 252.376 424.868C233.787 426.678 210.337 426.774 192.415 424.106C176.686 421.724 173.254 413.244 172.587 399.334C171.92 386.281 171.539 366.749 171.348 353.315C170.299 303.675 167.821 252.32 170.967 205.539C172.683 179.433 163.34 159.52 197.754 155.614C219.869 153.137 244.94 150.755 266.103 153.803C277.733 155.423 275.445 162.95 276.589 180.005C277.638 195.249 273.253 222.213 279.544 230.788C280.116 231.55 280.783 231.359 281.26 231.169C283.834 230.311 286.122 224.595 287.552 220.784C306.045 174.098 277.352 140.465 350.754 143.704C374.109 144.752 405.567 148.182 402.421 177.623C399.847 201.823 385.548 226.405 369.914 246.794C358.475 261.753 332.832 280.999 344.081 300.055C354.376 317.49 375.634 333.688 385.071 350.171C385.453 350.742 385.643 351.028 385.929 351.504H385.834L385.643 351.409Z" fill="#FFFEF4"/>
<path d="M146.675 158.567C155.731 150.945 167.838 146.562 180.517 144.561C194.434 142.275 208.638 142.465 220.268 136.749C234.948 130.174 243.718 112.739 238.952 97.3037C235.044 83.0121 220.554 73.1032 205.873 73.8655C178.801 75.3899 155.255 100.543 141.146 122.362C132.472 136.749 125.513 156.852 126.847 173.716C128.659 183.53 141.337 161.33 146.103 159.139L146.675 158.663V158.567Z" fill="#FFFEF4"/>
<path d="M118.077 148.658C118.554 141.608 121.604 134.462 125.989 128.174C130.756 121.219 136.666 115.121 139.049 107.689C142.29 98.6377 138.382 87.5855 129.612 83.2027C121.795 79.0105 111.5 81.2019 105.685 87.8713C95.1033 100.257 96.3425 120.933 99.965 136.082C102.634 145.8 108.449 157.138 116.361 163.522C121.414 166.761 116.933 152.088 117.982 149.135V148.658H118.077Z" fill="#FFFEF4"/>
</svg>
