<svg width="364" height="405" viewBox="0 0 364 405" fill="none" xmlns="http://www.w3.org/2000/svg">
<rect width="363.996" height="404.703" fill="#85CAE8"/>
<path d="M299.298 290.047C312.57 309.409 325.595 352.501 289.57 353.078C270.775 353.407 232.525 358.433 224.611 344.756C217.769 332.809 221.066 315.177 216.779 301.582C214.141 293.425 210.597 285.268 208.371 285.515C208.041 285.515 206.969 285.762 206.228 288.399C203.59 297.133 204.661 308.585 204.167 318.143C203.095 339.071 204.826 351.43 184.052 353.572C167.977 355.137 147.698 355.22 132.2 352.913C118.598 350.853 115.63 343.52 115.053 331.491C114.476 320.203 114.147 303.312 113.982 291.695C113.075 248.768 110.932 204.358 113.652 163.903C115.136 141.327 107.057 124.107 136.816 120.729C155.942 118.587 177.622 116.527 195.923 119.163C205.98 120.564 204.002 127.073 204.991 141.822C205.898 155.004 202.106 178.322 207.547 185.737C208.041 186.396 208.618 186.231 209.03 186.067C211.256 185.325 213.235 180.382 214.471 177.086C230.464 136.713 205.651 107.628 269.126 110.43C289.323 111.336 316.527 114.302 313.807 139.762C311.581 160.69 299.215 181.947 285.696 199.579C275.804 212.515 253.628 229.158 263.356 245.637C272.259 260.715 290.642 274.722 298.803 288.976C299.133 289.47 299.298 289.717 299.545 290.129H299.463L299.298 290.047Z" fill="#FFFEF4"/>
<path d="M92.6455 123.283C100.477 116.692 110.946 112.902 121.91 111.171C133.946 109.194 146.229 109.359 156.286 104.415C168.981 98.7299 176.565 83.652 172.444 70.3043C169.064 57.9453 156.533 49.3764 143.838 50.0356C120.426 51.3539 100.065 73.1057 87.8642 91.9737C80.3626 104.415 74.3447 121.8 75.4988 136.384C77.0651 144.87 88.0292 125.673 92.151 123.777L92.6455 123.365V123.283Z" fill="#FFFEF4"/>
<path d="M67.9148 114.714C68.327 108.617 70.9649 102.438 74.757 96.9997C78.8788 90.985 83.9898 85.7119 86.0507 79.2852C88.8535 71.4579 85.4737 61.9003 77.8895 58.1102C71.1298 54.4849 62.2267 56.3799 57.1981 62.1474C48.0477 72.8585 49.1194 90.7378 52.252 103.838C54.5602 112.242 59.5888 122.047 66.431 127.568C70.8001 130.369 66.9256 117.68 67.8323 115.126V114.714H67.9148Z" fill="#FFFEF4"/>
</svg>
