<?xml version="1.0" encoding="UTF-8"?>
<svg xmlns="http://www.w3.org/2000/svg" xmlns:xlink="http://www.w3.org/1999/xlink" width="2112" height="2112" viewBox="0 0 2112 2112">

<path fill-rule="evenodd" fill="rgb(78.90625%, 79.296875%, 79.296875%)" fill-opacity="1" d="M 1056 1670.78125 C 1249.601562 1670.78125 1406.539062 1695.378906 1406.539062 1725.71875 C 1406.539062 1756.0625 1249.601562 1780.65625 1056 1780.65625 C 862.398438 1780.65625 705.453125 1756.0625 705.453125 1725.71875 C 705.453125 1695.378906 862.398438 1670.78125 1056 1670.78125 "/>
<path fill-rule="evenodd" fill="rgb(0%, 0%, 0%)" fill-opacity="1" d="M 1480.148438 738.460938 C 1488.480469 832.210938 1454 922.101562 1409.871094 1020.570312 C 1294.71875 1277.488281 1116.71875 1607.761719 1054.5 1726.289062 C 992.160156 1608.480469 796.101562 1236.8125 685.738281 978.339844 C 650.847656 896.621094 626.429688 814.449219 631.195312 737.558594 C 663.746094 212.410156 1430.480469 179.398438 1480.148438 738.460938 "/>
<path fill-rule="evenodd" fill="rgb(14.109802%, 13.330078%, 13.330078%)" fill-opacity="1" d="M 1055.28125 414.960938 C 1238.859375 414.960938 1387.679688 563.78125 1387.679688 747.359375 C 1387.679688 930.941406 1238.859375 1079.761719 1055.28125 1079.761719 C 871.699219 1079.761719 722.878906 930.941406 722.878906 747.359375 C 722.878906 563.78125 871.699219 414.960938 1055.28125 414.960938 "/>
<path fill-rule="nonzero" fill="rgb(100%, 100%, 100%)" fill-opacity="1" d="M 1232.039062 465.910156 L 1232.039062 1028.878906 C 1230.011719 1030.128906 1228.039062 1031.390625 1226.011719 1032.53125 C 1176.441406 1062.300781 1118.5 1079.519531 1056.558594 1079.761719 L 1055.25 1079.761719 C 992.832031 1079.761719 934.476562 1062.539062 884.550781 1032.589844 C 882.28125 1031.210938 880.007812 1029.839844 877.738281 1028.398438 L 877.738281 466.320312 C 880.007812 464.828125 882.28125 463.449219 884.550781 462.078125 C 911.695312 445.808594 941.351562 433.261719 972.804688 425.25 C 973.097656 425.179688 973.398438 425.128906 973.757812 425.070312 C 999.824219 418.488281 1027.148438 414.960938 1055.25 414.960938 L 1056.558594 414.960938 C 1118.5 415.199219 1176.441406 432.421875 1226.011719 462.199219 C 1228.039062 463.390625 1230.011719 464.640625 1232.039062 465.910156 "/>
<path fill-rule="nonzero" fill="rgb(3.529358%, 11.376953%, 59.179688%)" fill-opacity="1" d="M 884.550781 462.078125 L 884.550781 1032.589844 C 882.28125 1031.210938 880.007812 1029.839844 877.738281 1028.398438 C 870.4375 1023.800781 863.324219 1018.898438 856.394531 1013.691406 C 828.113281 992.53125 803.355469 967.121094 783.089844 938.179688 C 766.828125 915.039062 753.375 889.691406 743.390625 862.671875 C 734.601562 838.691406 728.382812 813.398438 725.273438 787.210938 C 723.71875 774.121094 722.878906 760.839844 722.878906 747.328125 C 722.878906 629.058594 784.707031 525.210938 877.738281 466.320312 C 880.007812 464.828125 882.28125 463.449219 884.550781 462.078125 "/>
<path fill-rule="nonzero" fill="rgb(99.609375%, 13.330078%, 20.776367%)" fill-opacity="1" d="M 1387.679688 747.328125 C 1387.679688 760.839844 1386.839844 774.121094 1385.28125 787.210938 C 1382.121094 813.398438 1375.960938 838.691406 1367.109375 862.671875 C 1357.191406 889.691406 1343.730469 915.039062 1327.46875 938.179688 C 1307.199219 967.121094 1282.449219 992.53125 1254.171875 1013.691406 C 1246.988281 1019.019531 1239.640625 1024.101562 1232.039062 1028.878906 C 1230.011719 1030.128906 1228.039062 1031.390625 1226.011719 1032.53125 L 1226.011719 462.199219 C 1228.039062 463.390625 1230.011719 464.640625 1232.039062 465.910156 C 1241.308594 471.699219 1250.28125 477.980469 1258.890625 484.679688 C 1286.269531 505.898438 1310.308594 531.429688 1329.921875 560.128906 C 1345.828125 583.328125 1358.738281 608.621094 1368.359375 635.578125 C 1376.980469 659.558594 1382.828125 684.851562 1385.699219 711.101562 C 1387.019531 722.941406 1387.679688 735.070312 1387.679688 747.328125 "/>
</svg>
