<svg width="193" height="65" viewBox="0 0 193 65" fill="none" xmlns="http://www.w3.org/2000/svg">
<path d="M78.3767 51.5527C77.4132 47.4732 76.2745 43.6389 74.4001 36.1102H74.3651C74.3301 35.9701 74.3126 35.9176 74.2775 35.7775C72.9637 31.4004 71.6674 25.7276 67.4632 22.9963C62.313 19.6522 54.1848 17.8488 49.928 19.3195C46.7047 20.4225 45.934 24.6071 44.8479 27.9862C42.8158 34.3418 41.0991 41.3452 39.9254 48.1561C40.3634 48.7163 40.7838 49.2941 41.1166 49.8894L41.4319 50.3972C41.5896 50.6423 41.7473 50.9049 41.9049 51.1851L42.8684 52.7608H42.7282C44.1822 55.9124 45.1457 60.0094 43.6216 62.9508C43.3589 63.441 42.991 63.9838 42.4655 64.4565C47.1602 64.9818 54.36 64.7016 55.9716 60.2545C56.6372 58.4511 56.9526 55.8598 57.8635 54.2665C58.1438 53.7938 58.2839 53.4962 58.7919 53.4612C58.9496 53.4436 59.2649 53.6713 59.4401 53.9339C60.6313 55.9299 60.7189 58.6437 61.4546 60.7272C62.5757 63.9313 67.1303 64.7892 71.4221 64.7191C73.8045 64.6841 77.9737 64.8592 79.1649 63.2834C80.9167 60.9723 78.8496 53.4962 78.3767 51.5527ZM59.5452 43.1136C59.5452 43.1136 59.4576 43.1661 59.3875 43.2011C57.4606 43.2187 58.0737 40.925 58.1262 39.6644C58.1963 37.4934 58.6518 32.4509 58.862 32.1007C59.1072 31.698 59.2824 33.8516 59.5277 36.7405C59.6503 38.4739 59.7379 40.1372 59.8255 41.6954C59.8605 42.2732 59.8955 42.886 59.5627 43.0961L59.5452 43.1136Z" fill="#85CAE8"/>
<path d="M39.7327 51.01C42.5531 55.1245 45.3208 64.2814 37.6656 64.404C33.6716 64.474 25.5434 65.542 23.8617 62.6356C22.4078 60.0969 23.1085 56.3501 22.1975 53.4611C21.637 51.7278 20.8837 49.9945 20.4107 50.047C20.3407 50.047 20.1129 50.0995 19.9553 50.6598C19.3947 52.5157 19.6225 54.9494 19.5173 56.9804C19.2896 61.4275 19.6575 64.0538 15.243 64.509C11.8271 64.8417 7.51776 64.8592 4.22444 64.369C1.33403 63.9313 0.703397 62.373 0.580774 59.8167C0.45815 57.4181 0.388079 53.8288 0.353044 51.3601C0.16035 42.2382 -0.295109 32.8011 0.282974 24.2044C0.598291 19.407 -1.11844 15.7477 5.20543 15.0299C9.26953 14.5747 13.8767 14.137 17.7656 14.6972C19.9027 14.9949 19.4823 16.3781 19.6925 19.5121C19.8852 22.3134 19.0794 27.2684 20.2356 28.8441C20.3407 28.9842 20.4633 28.9492 20.5509 28.9142C21.0239 28.7566 21.4443 27.7061 21.7071 27.0057C25.1055 18.4265 19.8327 12.246 33.3213 12.8413C37.6131 13.0339 43.3939 13.6642 42.8158 19.0744C42.3428 23.5215 39.7152 28.0387 36.8423 31.7856C34.7402 34.5344 30.0279 38.0711 32.095 41.5728C33.9869 44.7769 37.8934 47.7534 39.6276 50.7823C39.6977 50.8874 39.7327 50.9399 39.7853 51.0275H39.7677L39.7327 51.01Z" fill="#85CAE8"/>
<path d="M114.918 39.0691C115.146 43.1311 115.076 46.8779 114.936 48.7339C114.761 51.2726 113.762 57.3306 108.034 61.3225C100.344 66.6801 87.9588 64.5791 82.9487 57.2955C79.743 52.6032 80.3561 50.6248 80.0933 48.8564C79.6904 46.1076 79.7255 34.0617 80.759 27.0933C81.3196 23.2939 85.7691 23.8192 90.2711 23.9067C94.3002 23.9943 96.3672 25.0973 96.4198 27.8987C96.4723 31.3829 96.1045 35.9176 96.0694 39.787C96.0694 41.1001 96.7351 47.2106 97.8037 46.02C100.151 43.4112 98.8022 36.1452 98.8723 32.0132C98.9248 28.7916 98.5745 25.9027 100.239 24.4495C102.901 22.1384 107.876 21.7532 110.872 22.331C113.307 22.8037 113.535 25.8327 114.13 29.5445C114.673 32.8886 114.743 35.76 114.918 38.7715C114.918 38.894 114.918 38.9466 114.936 39.0691H114.918Z" fill="#85CAE8"/>
<path d="M190.735 50.3446C189.754 43.3412 188.633 35.0597 186.846 27.6185H186.828C186.793 27.496 186.776 27.426 186.741 27.3034C185.479 22.9963 184.796 19.5646 179.453 15.8878C173.287 11.6507 166.683 9.40967 163.372 12.4912C160.832 14.8373 158.783 21.2805 157.574 25.5525C154.351 36.8981 152.949 44.024 151.53 52.7783C154.386 56.7352 156.418 60.0093 155.297 62.4956C155.104 62.9158 154.754 63.406 154.175 63.8262C154.281 63.8437 154.368 63.8612 154.491 63.8787C159.168 64.474 166.666 64.2639 168.347 59.6242C169.013 57.7858 169.328 55.1245 170.239 53.5137C170.519 53.0059 170.66 52.7258 171.168 52.6908C171.325 52.6908 171.641 52.9184 171.816 53.1985C173.007 55.2295 173.094 57.9959 173.83 60.1319C174.951 63.3885 179.506 64.2639 183.798 64.1939C186.18 64.1414 190.349 64.3165 191.541 62.7057C193.292 60.342 191.243 53.7413 190.752 50.3271L190.735 50.3446ZM171.903 39.5069C171.903 39.5069 171.816 39.5944 171.746 39.6469C169.819 40.2422 170.502 37.4583 170.589 35.9701C170.747 33.3263 171.36 27.4259 171.588 26.9707C171.851 26.3754 171.938 28.8792 172.096 32.1357C172.166 34.1142 172.184 36.0051 172.219 37.861C172.236 38.5439 172.254 39.1567 171.921 39.5069H171.903Z" fill="#85CAE8"/>
<path d="M147.151 50.2571C148.587 52.5857 157.451 61.375 151.32 63.1434C147.168 64.0888 140.704 64.7367 137.481 62.7407C134.994 61.1999 134.818 56.7878 133.47 53.9514C129.984 46.7029 131.035 57.243 131.473 59.0289C131.875 60.6572 131.893 62.373 131.035 63.336C129.511 65.0343 125.219 65.0343 122.521 64.474C120.051 63.9663 118.352 63.1959 118.177 60.6572C117.336 49.5392 117.546 43.7439 117.266 33.624C117.161 29.597 116.495 22.8562 122.749 18.5141C128.249 14.6972 137.271 12.8238 144.331 18.5141C150.129 23.2064 150.654 31.628 147.238 36.9506C144.996 40.4523 141.353 41.923 142.176 43.6214C143.139 45.5998 145.592 47.9635 146.993 49.977C147.063 50.0645 147.098 50.117 147.151 50.2046V50.2396V50.2571ZM132.489 33.764C132.594 34.5344 132.769 38.0361 133.102 38.0186C134.013 37.9661 134.433 35.5324 134.451 34.7095C134.486 32.8536 133.872 29.0367 132.594 28.8266C132.348 28.7916 132.524 32.8361 132.471 33.659V33.764H132.489Z" fill="#85CAE8"/>
<path d="M118.667 15.5727C120.331 14.172 122.556 13.3666 124.886 12.9989C127.444 12.5787 130.054 12.6137 132.191 11.5632C134.889 10.3551 136.5 7.15104 135.624 4.31466C134.906 1.68838 132.243 -0.132511 129.546 0.00755716C124.571 0.287694 120.244 4.90996 117.651 8.91941C116.057 11.5632 114.778 15.2575 115.024 18.3565C115.356 20.1599 117.686 16.0804 118.562 15.6777L118.667 15.5902V15.5727Z" fill="#85CAE8"/>
<path d="M113.412 13.7518C113.499 12.4561 114.06 11.143 114.866 9.98745C115.742 8.70933 116.828 7.58878 117.266 6.22311C117.861 4.5598 117.143 2.52881 115.532 1.72342C114.095 0.95304 112.203 1.35573 111.135 2.58133C109.19 4.85744 109.418 8.65679 110.084 11.4406C110.574 13.2265 111.643 15.31 113.097 16.4831C114.025 17.0784 113.202 14.3821 113.394 13.8393V13.7518H113.412Z" fill="#85CAE8"/>
</svg>
