<svg width="47" height="55" viewBox="0 0 47 55" fill="none" xmlns="http://www.w3.org/2000/svg">
<path d="M2.65857 53.2969V29.0121L10.7016 29.0107C14.4674 29.1469 18.0688 30.1144 20.6571 32.9867C24.4943 37.2452 24.5981 45.6395 20.6741 49.8738C18.194 52.5502 14.8478 53.1974 11.3343 53.2983L2.65857 53.2969ZM6.15496 52.4952C8.93575 52.4363 11.8631 52.7528 14.5213 51.7854C20.1615 49.7327 20.5 41.0292 18.8758 36.21C17.9308 33.4061 15.8882 30.9522 12.921 30.2584C11.0471 29.8201 9.08243 29.8265 7.16924 29.8793L6.15496 29.9474V52.4952Z" fill="#653200"/>
<path d="M28.7315 28.9785V29.1789H26.4006C26.5168 29.5868 26.6933 29.9843 26.8511 30.3805C29.7084 37.5472 32.6173 44.6935 35.4746 51.8604L35.524 51.894C36.297 49.9061 37.1623 47.9511 37.963 45.9727C38.0216 45.8573 38.1428 45.8136 38.2174 45.9373L35.1765 53.2991L32.7754 53.2988L32.6635 53.244L23.1038 29.1791H20.7396V28.9787H28.7314L28.7315 28.9785Z" fill="#653200"/>
<path d="M41.5518 37.931C41.5251 37.9544 41.514 37.9322 41.5185 37.8642C42.1924 33.7812 36.5672 34.6816 37.6724 30.7157C38.7232 26.9459 44.4271 27.9363 44.0781 31.9306C43.9378 33.5377 42.3692 36.4803 41.5518 37.931Z" fill="#653200"/>
<path d="M41.5517 37.9307C41.5396 37.9521 41.5311 37.976 41.5184 37.9971C41.5087 38.021 41.4976 38.0206 41.4851 37.9971C41.4946 37.9503 41.5137 37.8925 41.5184 37.8643L41.5517 37.9307Z" fill="#653200"/>
<path d="M41.5183 37.9978C41.5014 38.0262 41.491 38.0986 41.4684 38.0977C41.4143 38.0743 41.4821 38.0124 41.485 37.9978H41.5183Z" fill="#653200"/>
<path d="M6.0884 1.72046V25.2036H19.4413V26.0387H2.60866C2.60517 26.0387 2.55872 25.9921 2.55872 25.9886V1.72046H6.0884Z" fill="#653200"/>
<path d="M32.3944 13.1115C32.358 13.1337 32.358 13.1449 32.3944 13.1449C34.9749 13.3685 37.7249 14.0266 39.2812 16.2743C41.0325 18.804 40.3875 22.4867 38.0045 24.3678C36.1564 25.8266 33.5095 25.937 31.246 26.0058C28.954 26.0756 26.6485 26.021 24.3511 26.0406C24.317 26.0479 24.2362 26.0163 24.2362 25.9888V1.72063C26.1704 1.76623 28.1147 1.66034 30.0482 1.7193C33.9602 1.83855 39.3075 2.7742 38.9873 7.84997C38.7639 11.3937 35.369 12.5995 32.3944 13.1115ZM27.7326 12.7774C30.3868 12.7712 34.0411 12.9222 34.949 9.77822C35.3084 8.53342 35.3201 6.31187 34.8313 5.10515C34.0477 3.17121 32.184 2.69938 30.2813 2.62121C29.5845 2.59265 28.6338 2.57077 27.9477 2.62121C27.8731 2.62672 27.806 2.65111 27.7326 2.65612V12.7776V12.7774ZM27.7326 25.0034C29.4848 24.9212 31.3858 25.1928 33.0999 24.7924C35.9901 24.1175 36.6267 21.159 36.39 18.54C36.0337 14.599 33.3225 13.7142 29.8151 13.6112C29.1195 13.5908 28.4274 13.6603 27.7326 13.6459V25.0034Z" fill="#653200"/>
<path d="M32.3945 13.1116V13.1448C32.3636 13.1421 32.3035 13.1614 32.2943 13.1282C32.2943 13.0951 32.3636 13.1169 32.3945 13.1116Z" fill="#653200"/>
</svg>
