<svg width="188" height="64" viewBox="0 0 188 64" fill="none" xmlns="http://www.w3.org/2000/svg">
<path d="M76.2698 50.1669C75.3323 46.1971 74.2242 42.4658 72.4002 35.1395H72.3661C72.332 35.0032 72.315 34.952 72.2809 34.8157C71.0024 30.5563 69.7409 25.036 65.6497 22.3781C60.638 19.1238 52.7283 17.3689 48.5859 18.8001C45.4493 19.8735 44.6992 23.9456 43.6423 27.2339C41.6649 33.4186 39.9943 40.2338 38.8522 46.8616C39.2783 47.4068 39.6875 47.969 40.0114 48.5483L40.3182 49.0424C40.4716 49.2809 40.625 49.5365 40.7785 49.8091L41.716 51.3425H41.5797C42.9945 54.4094 43.9321 58.3962 42.449 61.2586C42.1933 61.7357 41.8354 62.2639 41.324 62.7239C45.8925 63.235 52.8987 62.9624 54.467 58.6348C55.1148 56.8799 55.4216 54.3582 56.3081 52.8078C56.5808 52.3478 56.7172 52.0581 57.2116 52.0241C57.365 52.007 57.6718 52.2285 57.8423 52.4841C59.0015 54.4264 59.0867 57.0673 59.8027 59.0948C60.8937 62.2127 65.3258 63.0476 69.5023 62.9794C71.8206 62.9454 75.8778 63.1157 77.037 61.5823C78.7416 59.3333 76.7301 52.0581 76.2698 50.1669ZM57.9446 41.9546C57.9446 41.9546 57.8593 42.0057 57.7911 42.0398C55.916 42.0569 56.5126 39.8249 56.5638 38.5982C56.632 36.4855 57.0752 31.5785 57.2797 31.2378C57.5184 30.8459 57.6889 32.9416 57.9275 35.7528C58.0468 37.4396 58.1321 39.0582 58.2173 40.5746C58.2514 41.1368 58.2855 41.7331 57.9616 41.9376L57.9446 41.9546Z" fill="#FFFEF4"/>
<path d="M38.6647 49.6388C41.4092 53.6427 44.1026 62.5535 36.6532 62.6728C32.7665 62.7409 24.8568 63.7802 23.2203 60.9519C21.8054 58.4814 22.4873 54.8353 21.6009 52.0241C21.0554 50.3373 20.3224 48.6506 19.8621 48.7017C19.7939 48.7017 19.5723 48.7528 19.4189 49.298C18.8734 51.104 19.095 53.4723 18.9927 55.4487C18.7711 59.7763 19.1291 62.332 14.8333 62.775C11.5092 63.0987 7.31569 63.1158 4.11089 62.6387C1.29817 62.2127 0.68449 60.6964 0.565162 58.2088C0.445835 55.8746 0.377648 52.3819 0.343554 49.9795C0.15604 41.1027 -0.287176 31.9193 0.275367 23.5537C0.582209 18.8853 -1.08837 15.3244 5.06551 14.6258C9.02036 14.1828 13.5037 13.7569 17.288 14.3021C19.3678 14.5917 18.9586 15.9377 19.1632 18.9875C19.3507 21.7136 18.5666 26.5353 19.6916 28.0687C19.7939 28.205 19.9133 28.171 19.9985 28.1369C20.4587 27.9835 20.8679 26.9613 21.1236 26.2797C24.4306 17.9312 19.2996 11.9168 32.4256 12.4961C36.6021 12.6835 42.2275 13.2968 41.6649 18.5616C41.2047 22.8892 38.6477 27.285 35.852 30.9311C33.8064 33.6061 29.2208 37.0477 31.2323 40.4553C33.0734 43.5732 36.8748 46.4697 38.5624 49.4173C38.6306 49.5195 38.6647 49.5706 38.7158 49.6558H38.6988L38.6647 49.6388Z" fill="#FFFEF4"/>
<path d="M111.829 38.0189C112.051 41.9717 111.983 45.6178 111.846 47.4239C111.676 49.8944 110.704 55.7895 105.13 59.6741C97.6465 64.8878 85.5944 62.8432 80.7191 55.7554C77.5995 51.1893 78.1961 49.264 77.9404 47.5431C77.5484 44.8682 77.5825 33.1461 78.5882 26.365C79.1337 22.6678 83.4636 23.1789 87.8446 23.2641C91.7654 23.3493 93.7769 24.4227 93.828 27.1487C93.8792 30.5393 93.5212 34.9521 93.4871 38.7175C93.4871 39.9953 94.1349 45.9416 95.1747 44.783C97.459 42.2443 96.1464 35.1736 96.2146 31.1526C96.2657 28.0177 95.9248 25.2064 97.5442 23.7923C100.135 21.5432 104.977 21.1684 107.892 21.7307C110.261 22.1907 110.483 25.1383 111.062 28.7503C111.591 32.0045 111.659 34.7988 111.829 37.7293C111.829 37.8485 111.829 37.8997 111.846 38.0189H111.829Z" fill="#FFFEF4"/>
<path d="M185.608 48.9914C184.653 42.1762 183.562 34.1173 181.824 26.8762H181.807C181.772 26.7569 181.755 26.6888 181.721 26.5695C180.494 22.3782 179.829 19.0387 174.63 15.4608C168.629 11.3376 162.203 9.15674 158.981 12.1554C156.509 14.4385 154.515 20.7085 153.338 24.8657C150.202 35.9063 148.838 42.8407 147.457 51.3597C150.236 55.2103 152.213 58.3964 151.122 60.8157C150.935 61.2247 150.594 61.7017 150.031 62.1106C150.134 62.1277 150.219 62.1447 150.338 62.1617C154.89 62.741 162.186 62.5366 163.822 58.0215C164.47 56.2325 164.777 53.6428 165.663 52.0753C165.936 51.5812 166.072 51.3086 166.567 51.2745C166.72 51.2745 167.027 51.496 167.197 51.7686C168.357 53.745 168.442 56.437 169.158 58.5156C170.249 61.6847 174.681 62.5366 178.857 62.4684C181.176 62.4173 185.233 62.5877 186.392 61.0202C188.097 58.7201 186.102 52.2968 185.625 48.9744L185.608 48.9914ZM167.283 38.4449C167.283 38.4449 167.197 38.5301 167.129 38.5812C165.254 39.1605 165.919 36.4515 166.004 35.0033C166.158 32.4305 166.754 26.6888 166.976 26.2458C167.232 25.6665 167.317 28.1029 167.47 31.272C167.538 33.1973 167.555 35.0374 167.59 36.8434C167.607 37.5079 167.624 38.1042 167.3 38.4449H167.283Z" fill="#FFFEF4"/>
<path d="M143.196 48.9063C144.593 51.1724 153.219 59.7254 147.253 61.4463C143.213 62.3663 136.922 62.9967 133.786 61.0544C131.365 59.555 131.195 55.2615 129.882 52.5013C126.49 45.4476 127.512 55.7045 127.939 57.4423C128.331 59.0269 128.348 60.6966 127.512 61.6337C126.029 63.2863 121.853 63.2863 119.228 62.7411C116.824 62.247 115.171 61.4974 115 59.0269C114.182 48.2078 114.386 42.5682 114.114 32.7203C114.011 28.8016 113.364 22.242 119.449 18.0166C124.802 14.3023 133.581 12.4792 140.451 18.0166C146.093 22.5827 146.605 30.778 143.281 35.9575C141.099 39.3651 137.553 40.7963 138.354 42.449C139.292 44.3742 141.678 46.6744 143.042 48.6337C143.11 48.7189 143.144 48.77 143.196 48.8552V48.8893V48.9063ZM128.927 32.8566C129.03 33.6063 129.2 37.0139 129.524 36.9968C130.41 36.9457 130.82 34.5774 130.837 33.7766C130.871 31.9706 130.274 28.2564 129.03 28.0519C128.791 28.0178 128.961 31.9536 128.91 32.7544V32.8566H128.927Z" fill="#FFFEF4"/>
<path d="M115.478 15.1541C117.097 13.791 119.262 13.0073 121.529 12.6495C124.018 12.2406 126.558 12.2747 128.638 11.2524C131.263 10.0768 132.831 6.95883 131.979 4.19868C131.28 1.64299 128.689 -0.128949 126.064 0.00735403C121.222 0.279961 117.012 4.77798 114.489 8.67967C112.938 11.2524 111.693 14.8474 111.932 17.8631C112.256 19.618 114.523 15.6482 115.375 15.2563L115.478 15.1711V15.1541Z" fill="#FFFEF4"/>
<path d="M110.364 13.3823C110.449 12.1215 110.994 10.8436 111.778 9.71912C112.631 8.47535 113.688 7.38492 114.114 6.05596C114.693 4.43736 113.994 2.46096 112.426 1.67721C111.028 0.927543 109.187 1.31941 108.147 2.51207C106.255 4.727 106.477 8.42423 107.125 11.1333C107.602 12.8711 108.642 14.8986 110.057 16.0402C110.96 16.6195 110.159 13.9956 110.346 13.4675V13.3823H110.364Z" fill="#FFFEF4"/>
</svg>
