<svg xmlns="http://www.w3.org/2000/svg" xmlns:xlink="http://www.w3.org/1999/xlink" id="Groupe_1" data-name="Groupe 1" width="134.527" height="75" viewBox="0 0 134.527 75"><defs><clipPath id="clip-path"><rect id="Rectangle_3" data-name="Rectangle 3" width="134.528" height="75" fill="#e3074d"></rect></clipPath></defs><g id="Groupe_3" data-name="Groupe 3" clip-path="url(#clip-path)"><path id="Trac&#xE9;_39" data-name="Trac&#xE9; 39" d="M129.067,47.609a11.024,11.024,0,0,1-8.674,10.344L11.672,79.092C6.884,80.017,3,76.879,3,72.088V43.949A11.021,11.021,0,0,1,11.672,33.6L120.393,12.462c4.789-.923,8.674,2.215,8.674,7Z" transform="translate(-2.223 -9.114)" fill="#e3074d"></path><path id="Trac&#xE9;_40" data-name="Trac&#xE9; 40" d="M7.783,77.806a7.764,7.764,0,0,1-5.015-1.744A7.848,7.848,0,0,1,0,69.861V41.721A11.845,11.845,0,0,1,9.3,30.614L118.022,9.472a8.106,8.106,0,0,1,6.831,1.569,7.847,7.847,0,0,1,2.768,6.2V45.382a11.849,11.849,0,0,1-9.3,11.107L9.6,77.628a9.583,9.583,0,0,1-1.814.177M119.827,10.85a7.98,7.98,0,0,0-1.51.148L9.6,32.14a10.227,10.227,0,0,0-8.043,9.582v28.14a6.322,6.322,0,0,0,2.2,5A6.576,6.576,0,0,0,9.3,76.1l108.72-21.14a10.232,10.232,0,0,0,8.045-9.581V17.239a6.32,6.32,0,0,0-2.2-5,6.246,6.246,0,0,0-4.036-1.389" transform="translate(0 -6.887)" fill="#fff"></path><path id="Trac&#xE9;_41" data-name="Trac&#xE9; 41" d="M9.772,79.1A7.085,7.085,0,0,1,5.2,77.512a7.167,7.167,0,0,1-2.516-5.665V43.707a11.123,11.123,0,0,1,8.739-10.426L120.139,12.139a7.426,7.426,0,0,1,6.257,1.423,7.166,7.166,0,0,1,2.516,5.663V47.368a11.127,11.127,0,0,1-8.742,10.425L11.45,78.933a8.886,8.886,0,0,1-1.678.164M121.816,12.141a8.683,8.683,0,0,0-1.645.161L11.45,33.444a10.95,10.95,0,0,0-8.6,10.263v28.14A7,7,0,0,0,5.3,77.383a7.253,7.253,0,0,0,6.117,1.386l108.721-21.14a10.954,10.954,0,0,0,8.607-10.262V19.225a7,7,0,0,0-2.456-5.535,6.927,6.927,0,0,0-4.475-1.548" transform="translate(-1.985 -8.873)" fill="#fff"></path><path id="Trac&#xE9;_42" data-name="Trac&#xE9; 42" d="M148.2,172.264c1.254,6.689-22.336,16.731-52.687,22.428s-55.978,4.891-57.232-1.8,22.33-16.731,52.685-22.427,55.978-4.894,57.234,1.8" transform="translate(-28.325 -123.49)" fill="#fff"></path><path id="Trac&#xE9;_43" data-name="Trac&#xE9; 43" d="M150.731,176.771c1.062,5.668-21.906,14.727-51.3,20.246s-54.088,5.4-55.15-.264,21.909-14.733,51.3-20.247,54.085-5.4,55.15.265" transform="translate(-32.781 -127.768)" fill="#accc55"></path><path id="Trac&#xE9;_44" data-name="Trac&#xE9; 44" d="M258.578,180.251s34.494-6.21,48.633-1.5c0,0-10.183-3.6-43.705,2.143,0,0-.642-.856-4.928-.647" transform="translate(-191.587 -131.135)" fill="#fff"></path><path id="Trac&#xE9;_45" data-name="Trac&#xE9; 45" d="M88.735,247.7a3.139,3.139,0,0,0-.041,1.383l-1.893.362a4.516,4.516,0,0,0,.452-1.46l.818-4.731a1.975,1.975,0,0,0-.028-1.034l1.761-.687Z" transform="translate(-64.313 -178.955)" fill="#fff"></path><path id="Trac&#xE9;_46" data-name="Trac&#xE9; 46" d="M100.611,251.85a.821.821,0,0,0,1.068.6,2.64,2.64,0,0,0,1.318-.76l.38.891a4.862,4.862,0,0,1-2.2,1.108c-1.521.291-2.325-.605-2.04-2.254a3.742,3.742,0,0,1,2.842-2.911c1.185-.227,1.891.443,1.725,1.8Zm1.075-2.309a1.4,1.4,0,0,0-1.1,1.175,1.6,1.6,0,0,0-.033.306l1.767-.883c-.052-.446-.3-.661-.631-.6" transform="translate(-73.407 -184.103)" fill="#fff"></path><path id="Trac&#xE9;_47" data-name="Trac&#xE9; 47" d="M134.554,238.9a2.231,2.231,0,0,0,1.456,1.248,4.934,4.934,0,0,1-1.676.938c-.473.091-.789-.3-1.156-1.23l-.481-1.211a5.463,5.463,0,0,1-.631.152l-.213.042-.245,1.409a2.075,2.075,0,0,0,.078,1.28l-2.121.4a3.066,3.066,0,0,0,.527-1.39l.768-4.421a1.9,1.9,0,0,0-.076-1.28c.367-.059.681-.109.95-.159.51-.1,1.046-.236,1.6-.337,1.677-.324,2.374.359,2.146,1.656a3.045,3.045,0,0,1-1.319,2.015Zm-2.317-1.3.277-.054A1.651,1.651,0,0,0,134,236.268c.111-.626-.256-.9-1.075-.747a5.042,5.042,0,0,0-.519.139l-.34,1.953c.1-.009.151-.009.172-.013" transform="translate(-95.999 -173.569)" fill="#fff"></path><path id="Trac&#xE9;_48" data-name="Trac&#xE9; 48" d="M156.884,241.07a.817.817,0,0,0,1.065.592,2.633,2.633,0,0,0,1.32-.76l.38.893a4.85,4.85,0,0,1-2.2,1.109c-1.524.294-2.329-.608-2.044-2.256a3.733,3.733,0,0,1,2.837-2.907c1.189-.233,1.891.441,1.73,1.794Zm1.074-2.308a1.388,1.388,0,0,0-1.105,1.175,1.606,1.606,0,0,0-.033.3l1.765-.883c-.049-.448-.3-.661-.626-.592" transform="translate(-115.102 -176.116)" fill="#fff"></path><path id="Trac&#xE9;_49" data-name="Trac&#xE9; 49" d="M178.523,235.233a1.585,1.585,0,0,0-1.239-.264c-.309.06-.5.206-.534.406-.042.235.253.3.812.5.755.261,1.168.571,1.034,1.342a2.681,2.681,0,0,1-2.306,2.012c-.975.186-1.677-.026-1.628-.3a.3.3,0,0,1,.039-.118l.48-1.02a1.545,1.545,0,0,0,1.373.414.684.684,0,0,0,.606-.474c.053-.307-.279-.374-.811-.56-.738-.255-1.086-.588-.956-1.339a2.538,2.538,0,0,1,2.162-1.854c.848-.164,1.522.005,1.473.282a.454.454,0,0,1-.056.151Z" transform="translate(-129.409 -173.312)" fill="#fff"></path><path id="Trac&#xE9;_50" data-name="Trac&#xE9; 50" d="M193.849,230.721a2.537,2.537,0,0,1,1.36-.719c1.148-.219,1.858.587,1.577,2.2a3.638,3.638,0,0,1-2.575,3,1.6,1.6,0,0,1-1.1-.106l-.128.738a3.283,3.283,0,0,0-.032,1.389l-1.862.359a4.57,4.57,0,0,0,.452-1.47l.72-4.153a2.01,2.01,0,0,0-.018-1.029l1.609-.667Zm.188,3.361a1.786,1.786,0,0,0,1.239-1.56c.155-.9-.108-1.309-.71-1.193a1.745,1.745,0,0,0-.895.525l-.358,2.082a.828.828,0,0,0,.725.146" transform="translate(-141.581 -170.388)" fill="#fff"></path><path id="Trac&#xE9;_51" data-name="Trac&#xE9; 51" d="M217.424,229.459a.816.816,0,0,0,1.066.589,2.589,2.589,0,0,0,1.318-.757l.381.893a4.9,4.9,0,0,1-2.2,1.106c-1.526.291-2.329-.61-2.042-2.254a3.738,3.738,0,0,1,2.836-2.911c1.189-.228,1.893.442,1.727,1.8Zm1.074-2.316a1.409,1.409,0,0,0-1.1,1.183,1.739,1.739,0,0,0-.033.3l1.764-.884c-.049-.451-.3-.661-.626-.6" transform="translate(-159.958 -167.51)" fill="#fff"></path><path id="Trac&#xE9;_52" data-name="Trac&#xE9; 52" d="M240.022,223.593a1.162,1.162,0,0,0-1.051-.278,1.921,1.921,0,0,0-1.369,1.567c-.149.865.256,1.272.93,1.144a2.892,2.892,0,0,0,1.451-.834l-.123,1.047-.006.027c-.078.455-.847.893-1.746,1.066-1.5.287-2.291-.5-2.01-2.1a3.74,3.74,0,0,1,2.916-3.083c1.014-.193,1.629.073,1.579.374a1.214,1.214,0,0,1-.1.268Z" transform="translate(-174.891 -164.545)" fill="#fff"></path><path id="Trac&#xE9;_53" data-name="Trac&#xE9; 53" d="M258.212,215.007l.829-.158a1.681,1.681,0,0,0,.5-.165l-.145.654c-.1.467-.265.64-.7.722l-.7.132-.389,2.255c-.061.337.024.469.281.42a2.373,2.373,0,0,0,1.082-.753l-.1.534c-.128.75-.437,1.278-1.624,1.506-.931.178-1.351-.14-1.224-.869l.484-2.805-.522.1.211-1.2a1.771,1.771,0,0,0,.322-.035c.062-.01.124-.033.2-.047l.213-1.234,1.527-.551Z" transform="translate(-189.677 -158.195)" fill="#fff"></path><path id="Trac&#xE9;_54" data-name="Trac&#xE9; 54" d="M286.531,208.23a1.479,1.479,0,0,0,.127,1.211l-1.052.538c-.109.049-.173.083-.2.091-.178.029-.249-.132-.3-.483a2.239,2.239,0,0,1-1.357.805c-1.261.242-1.94-.669-1.676-2.181a3.517,3.517,0,0,1,2.6-3,1.867,1.867,0,0,1,.975.024l.272-1.555a1.3,1.3,0,0,0-.054-.856l1.711-.615Zm-1.774-1.9a1.707,1.707,0,0,0-1.181,1.543c-.137.806.143,1.251.705,1.141a1.454,1.454,0,0,0,.794-.492l.352-2.016a.748.748,0,0,0-.671-.177" transform="translate(-208.956 -149.818)" fill="#fff"></path><path id="Trac&#xE9;_55" data-name="Trac&#xE9; 55" d="M305.958,211.582c-.085.5.076.7.568.605a1.871,1.871,0,0,0,1.017-.574l.344-1.995a3.19,3.19,0,0,0,.045-1.379l1.85-.355a4.572,4.572,0,0,0-.45,1.457l-.369,2.14a2.04,2.04,0,0,0,.026,1.109l-1.606.656,0-.486a3.682,3.682,0,0,1-1.676.806c-1.015.192-1.457-.146-1.306-1.02l.414-2.388a2.46,2.46,0,0,0-.022-1.069l1.721-.7Z" transform="translate(-225.513 -154.027)" fill="#fff"></path><path id="Trac&#xE9;_56" data-name="Trac&#xE9; 56" d="M339.684,194.44l2.708-.516c.276-.055.408-.012.392.139l-.109,1.137a1.327,1.327,0,0,0-.712.006l-1.421.276-.259,1.509,1.06-.2a3.3,3.3,0,0,0,.638-.187l-.237,1.353a2.69,2.69,0,0,0-.61.045l-1.066.21-.35,2.032a1.515,1.515,0,0,0,.086,1.037l-2.159.417a2.6,2.6,0,0,0,.465-1.146l.792-4.565a2.373,2.373,0,0,0-.054-1.41c.215-.023.5-.066.837-.133" transform="translate(-250.17 -143.666)" fill="#fff"></path><path id="Trac&#xE9;_57" data-name="Trac&#xE9; 57" d="M357.264,202.818a3.241,3.241,0,0,0-.041,1.384l-1.895.36a4.481,4.481,0,0,0,.454-1.457l.383-2.209a2.035,2.035,0,0,0-.03-1.032l1.548-.653-.036.592a2.389,2.389,0,0,1,1.251-.824c.3-.057.429.044.395.232a.77.77,0,0,1-.084.251l-.41.956a1.049,1.049,0,0,0-.387,0,1.549,1.549,0,0,0-.816.474Z" transform="translate(-263.272 -147.418)" fill="#fff"></path><path id="Trac&#xE9;_58" data-name="Trac&#xE9; 58" d="M373.048,198.715c-.087.5.076.7.568.605a1.834,1.834,0,0,0,1.017-.574l.346-1.995a3.193,3.193,0,0,0,.04-1.378l1.857-.356a4.533,4.533,0,0,0-.454,1.457l-.368,2.14a2.04,2.04,0,0,0,.022,1.109l-1.6.653-.008-.483a3.642,3.642,0,0,1-1.671.806c-1.011.192-1.462-.146-1.308-1.02l.415-2.385a2.5,2.5,0,0,0-.023-1.069l1.722-.7Z" transform="translate(-275.222 -144.493)" fill="#fff"></path><path id="Trac&#xE9;_59" data-name="Trac&#xE9; 59" d="M395.142,190.22a3.064,3.064,0,0,0-.036,1.379l-1.895.364a4.507,4.507,0,0,0,.451-1.457l.382-2.213a2.04,2.04,0,0,0-.028-1.026l1.761-.7Zm.856-5.054a1.247,1.247,0,0,1-.911.919.519.519,0,0,1-.647-.638,1.223,1.223,0,0,1,.911-.934.512.512,0,0,1,.647.653" transform="translate(-291.341 -136.7)" fill="#fff"></path><path id="Trac&#xE9;_60" data-name="Trac&#xE9; 60" d="M408.869,186.113l.829-.157a1.779,1.779,0,0,0,.5-.167l-.141.652c-.1.468-.269.641-.7.724l-.7.132-.392,2.25c-.06.341.027.474.282.423a2.389,2.389,0,0,0,1.079-.751l-.091.532c-.128.753-.438,1.28-1.625,1.5-.929.182-1.351-.137-1.225-.865l.488-2.809-.524.1.21-1.2a1.689,1.689,0,0,0,.324-.029c.061-.015.122-.034.2-.053l.215-1.23,1.53-.556Z" transform="translate(-301.303 -136.783)" fill="#fff"></path><path id="Trac&#xE9;_61" data-name="Trac&#xE9; 61" d="M54.985,267.79s2.644,4.162,20.043,2.441c0,0-13.907.417-20.043-2.441" transform="translate(-40.74 -198.413)" fill="#fff"></path><path id="Trac&#xE9;_62" data-name="Trac&#xE9; 62" d="M244.95,80.38a6.712,6.712,0,0,1,5.15-3.888,6.021,6.021,0,0,1,5.209,1.6,9.261,9.261,0,0,1,2.766,5.672,13.786,13.786,0,0,1-2.6,10.328,11.7,11.7,0,0,1-8.419,5.082,9.123,9.123,0,0,1-6.429-1.422,7.9,7.9,0,0,1-3.377-5.571,10.464,10.464,0,0,1,1.61-7.54,9.268,9.268,0,0,1,6.1-4.258m-.823,1.741a6.521,6.521,0,0,0-3.428,3.357,9.172,9.172,0,0,0-.619,5.359,7.76,7.76,0,0,0,2.817,5.107,6.932,6.932,0,0,0,5.262,1.415,7.376,7.376,0,0,0,5.684-4.01,12.718,12.718,0,0,0,1.45-8.434,7.985,7.985,0,0,0-2.025-4.454,4,4,0,0,0-3.6-1.4,4.571,4.571,0,0,0-3.228,2.271,6.186,6.186,0,0,0-.87,4.32,6.456,6.456,0,0,0,1.221,2.951,3.913,3.913,0,0,1-2.142-.554,2.953,2.953,0,0,1-.8-1.894,10.119,10.119,0,0,1,.279-4.035" transform="translate(-175.677 -56.616)" fill="#fff"></path><path id="Trac&#xE9;_63" data-name="Trac&#xE9; 63" d="M245.475,99.135a8.761,8.761,0,0,1-5.066-1.514,7.96,7.96,0,0,1-3.4-5.613,10.538,10.538,0,0,1,1.619-7.584,9.389,9.389,0,0,1,6.106-4.279,6.734,6.734,0,0,1,5.182-3.895,6.062,6.062,0,0,1,5.261,1.611,9.359,9.359,0,0,1,2.786,5.709,13.872,13.872,0,0,1-2.616,10.374,11.825,11.825,0,0,1-8.462,5.108,12.438,12.438,0,0,1-1.406.083m5.51-22.841a7.309,7.309,0,0,0-1.054.08,6.625,6.625,0,0,0-5.1,3.855l-.013.026-.029.006a9.152,9.152,0,0,0-6.056,4.231,10.418,10.418,0,0,0-1.6,7.5,7.841,7.841,0,0,0,3.351,5.53,9.033,9.033,0,0,0,6.387,1.411,11.705,11.705,0,0,0,8.376-5.057,13.75,13.75,0,0,0,2.593-10.283,9.237,9.237,0,0,0-2.746-5.635,5.909,5.909,0,0,0-4.1-1.659m-3.984,21a6.791,6.791,0,0,1-4.319-1.483,7.807,7.807,0,0,1-2.841-5.146,9.262,9.262,0,0,1,.624-5.394,6.615,6.615,0,0,1,3.459-3.388l.117-.051-.031.123a10.119,10.119,0,0,0-.278,4.01,2.889,2.889,0,0,0,.783,1.855,3.655,3.655,0,0,0,1.973.531,6.482,6.482,0,0,1-1.153-2.871,6.211,6.211,0,0,1,.879-4.363,4.657,4.657,0,0,1,3.271-2.3,4.044,4.044,0,0,1,3.652,1.418,8.078,8.078,0,0,1,2.041,4.488A12.837,12.837,0,0,1,253.72,93.2a7.461,7.461,0,0,1-5.729,4.04,9.255,9.255,0,0,1-.989.056m-3.143-15.245a6.487,6.487,0,0,0-3.28,3.274,9.14,9.14,0,0,0-.614,5.323,7.687,7.687,0,0,0,2.795,5.067,6.842,6.842,0,0,0,5.217,1.4,7.343,7.343,0,0,0,5.636-3.979,12.717,12.717,0,0,0,1.442-8.394,7.958,7.958,0,0,0-2.009-4.42,3.926,3.926,0,0,0-3.543-1.381,4.481,4.481,0,0,0-3.184,2.242,6.092,6.092,0,0,0-.861,4.278,6.357,6.357,0,0,0,1.209,2.923l.08.107-.133-.008a3.942,3.942,0,0,1-2.176-.567,3,3,0,0,1-.827-1.933,10.149,10.149,0,0,1,.25-3.935" transform="translate(-175.5 -56.435)" fill="#fff"></path><path id="Trac&#xE9;_68" data-name="Trac&#xE9; 68" d="M59.187,119.577a6.8,6.8,0,0,0-4.521-.733c-1.51.344-2.843,1.592-2.812,2.861.041,1.511,1.263,2.312,3.142,3.6,3.3,2.253,6.649,3.853,6.764,8.024.116,4.568-3.415,8.294-8.531,9.451-3.545.8-5.954.354-6-1.312l0-.124.194-4.326a5.869,5.869,0,0,0,5.348,1.308c1.868-.424,3.374-2.115,3.335-3.625-.061-2.341-2.787-3.944-5.993-6.335-1.916-1.445-3.082-3-3.082-5.307,0-5,2.738-8.048,7.608-8.966,3.115-.585,5.336-.331,5.364.705a8.748,8.748,0,0,1-.139.868Z" transform="translate(-34.847 -84.308)" fill="#fff"></path><path id="Trac&#xE9;_69" data-name="Trac&#xE9; 69" d="M119.136,103.977a9.974,9.974,0,0,0-.8,4.881l.452,15.357c.059,2.04.073,2.765.778,3.734l-6.847,2.4a10.923,10.923,0,0,0,.917-5.079l-.452-15.356a8.243,8.243,0,0,0-1.069-4.5Z" transform="translate(-83.068 -77.039)" fill="#fff"></path><path id="Trac&#xE9;_70" data-name="Trac&#xE9; 70" d="M167.487,96.681a8.4,8.4,0,0,0-5.507-.861c-4.144.752-6.594,3.915-6.439,8.668.155,4.618,2.846,6.751,6.889,6.017a11.042,11.042,0,0,0,6.466-3.693l.14,4.221a1.807,1.807,0,0,1-.291,1.315c-.453.58-2.957,2.1-6.53,2.744-7.386,1.339-11.8-2.14-12.049-9.564-.238-7.258,3.92-12.623,11.071-13.919,4.075-.741,7.424-.118,7.447.607a4.371,4.371,0,0,1-.117.486Z" transform="translate(-111.254 -67.628)" fill="#fff"></path><path id="Trac&#xE9;_71" data-name="Trac&#xE9; 71" d="M337.5,63.489a11.688,11.688,0,0,0-.825,5.176l.446,14.712,4.951-.972a10.523,10.523,0,0,0,3.115-1.1l-.507,3.781c-.163,1.192-.646,1.459-1.721,1.672-2.053.4-4.991.7-8.707,1.428-1.011.2-2.049.474-3.058.708a7.707,7.707,0,0,0,.765-3.868L331.5,69.682a9.592,9.592,0,0,0-1.13-4.792Z" transform="translate(-244.778 -47.041)" fill="#fff"></path><path id="Trac&#xE9;_72" data-name="Trac&#xE9; 72" d="M388,46.943a9.3,9.3,0,0,0,1.234,3.9l2.856,5.586,2.857-8.185a6.861,6.861,0,0,0,.449-2.256,5.064,5.064,0,0,0-.049-.632l6.743-1.457a36.8,36.8,0,0,0-2.854,6.142l-4.73,12.49c-2.695,7.094-4.223,10.036-6.493,10.526l-5.141,1.111a30.831,30.831,0,0,0,4.937-7.5l1.753-4.049-4.549-8.705a20.482,20.482,0,0,0-4.071-5.443Z" transform="translate(-282.25 -32.523)" fill="#fff"></path><path id="Trac&#xE9;_73" data-name="Trac&#xE9; 73" d="M493.978,8.737a3.507,3.507,0,1,1-3.508-3.508,3.507,3.507,0,0,1,3.508,3.508" transform="translate(-360.804 -3.874)" fill="#fff"></path><path id="Trac&#xE9;_74" data-name="Trac&#xE9; 74" d="M488.988,11.281a4.026,4.026,0,1,1,4.026-4.025,4.03,4.03,0,0,1-4.026,4.025m0-7.015a2.989,2.989,0,1,0,2.989,2.989,2.993,2.993,0,0,0-2.989-2.989" transform="translate(-359.322 -2.393)" fill="#e3074d"></path><path id="Trac&#xE9;_75" data-name="Trac&#xE9; 75" d="M494.336,15.033V11.425h1.705a3.227,3.227,0,0,1,.934.1.906.906,0,0,1,.467.346.963.963,0,0,1,.176.569.907.907,0,0,1-.266.67,1.338,1.338,0,0,1-.794.333,1.889,1.889,0,0,1,.434.3,4.158,4.158,0,0,1,.461.586l.49.7h-.969l-.586-.785a5.182,5.182,0,0,0-.427-.53.629.629,0,0,0-.244-.15,1.482,1.482,0,0,0-.408-.04h-.164v1.506Zm.81-2.082h.6a3.439,3.439,0,0,0,.728-.044.415.415,0,0,0,.309-.423.4.4,0,0,0-.108-.294.515.515,0,0,0-.3-.141c-.066-.008-.263-.012-.592-.012h-.632Z" transform="translate(-366.267 -8.465)" fill="#e3074d"></path><path id="Trac&#xE9;_76" data-name="Trac&#xE9; 76" d="M486.594,9.724a4.862,4.862,0,1,1,4.862-4.862,4.868,4.868,0,0,1-4.862,4.862m0-8.688a3.826,3.826,0,1,0,3.826,3.826,3.83,3.83,0,0,0-3.826-3.826" transform="translate(-356.928)" fill="#fff"></path><path id="Trac&#xE9;_77" data-name="Trac&#xE9; 77" d="M261.487,64.206s-1.981-3.249.872-5.107a18.965,18.965,0,0,0,2.033-1.58,7.374,7.374,0,0,1,.058,3.774c-.625,1.6-2.092,2.839-2.963,2.912" transform="translate(-193.247 -42.618)" fill="#accc55"></path><path id="Trac&#xE9;_78" data-name="Trac&#xE9; 78" d="M240.358,76.341s-1.008-2.877-3.789-2.349a18.167,18.167,0,0,1-2.147.236,6.86,6.86,0,0,0,2.408,2.107,4.356,4.356,0,0,0,3.529.006" transform="translate(-173.69 -54.775)" fill="#accc55"></path></g></svg>