<?xml version="1.0" encoding="UTF-8" standalone="no"?>
<svg
   xmlns:dc="http://purl.org/dc/elements/1.1/"
   xmlns:cc="http://creativecommons.org/ns#"
   xmlns:rdf="http://www.w3.org/1999/02/22-rdf-syntax-ns#"
   xmlns:svg="http://www.w3.org/2000/svg"
   xmlns="http://www.w3.org/2000/svg"
   xmlns:sodipodi="http://sodipodi.sourceforge.net/DTD/sodipodi-0.dtd"
   xmlns:inkscape="http://www.inkscape.org/namespaces/inkscape"
   width="2761.9211"
   height="668.36621"
   viewBox="0 0 2761.9212 668.36621"
   version="1.1"
   id="svg6076"
   sodipodi:docname="SUPERU.svg"
   inkscape:version="0.92.2 (5c3e80d, 2017-08-06)">
  <title
     id="title4511">U rond</title>
  <metadata
     id="metadata6080">
    <rdf:RDF>
      <cc:Work
         rdf:about="">
        <dc:format>image/svg+xml</dc:format>
        <dc:type
           rdf:resource="http://purl.org/dc/dcmitype/StillImage" />
        <dc:title>U rond</dc:title>
      </cc:Work>
    </rdf:RDF>
  </metadata>
  <sodipodi:namedview
     pagecolor="#ffffff"
     bordercolor="#666666"
     borderopacity="1"
     objecttolerance="10"
     gridtolerance="10"
     guidetolerance="10"
     inkscape:pageopacity="0"
     inkscape:pageshadow="2"
     inkscape:window-width="1366"
     inkscape:window-height="705"
     id="namedview6078"
     showgrid="true"
     fit-margin-top="0"
     fit-margin-left="0"
     fit-margin-right="0"
     fit-margin-bottom="0"
     inkscape:zoom="0.42882436"
     inkscape:cx="1192.4828"
     inkscape:cy="277.75167"
     inkscape:window-x="-8"
     inkscape:window-y="-8"
     inkscape:window-maximized="1"
     inkscape:current-layer="svg6076" />
  <!-- Generator: Sketch 43.2 (39069) - http://www.bohemiancoding.com/sketch -->
  <desc
     id="desc6043">Created with Sketch.</desc>
  <defs
     id="defs6045" />
  <g
     id="g6699"
     transform="matrix(20.607095,0,0,20.607095,1290.1366,838.69275)">
    <path
       d="m 53.97488,-9.775359 c -8.098054,0 -14.659135,-6.550029 -14.659135,-14.630048 0,-8.076459 6.561081,-14.622928 14.659135,-14.622928 8.094486,0 14.659135,6.546469 14.659135,14.622928 0,8.080343 -6.564649,14.630048 -14.659135,14.630048"
       id="Shape"
       inkscape:connector-curvature="0"
       style="fill:#ffffff;fill-rule:nonzero;stroke:none;stroke-width:1" />
    <path
       d="m 56.249366,-40.557031 c -0.441729,-0.03689 -0.669081,-0.05113 -1.105621,-0.05113 0.781621,0.02298 1.568756,0.109054 2.355567,0.265354 8.344541,1.621246 13.685514,10.022602 11.932216,18.766652 -1.754918,8.74049 -9.940864,14.513874 -18.285405,12.894569 -0.371351,-0.07378 -0.737513,-0.159859 -1.096865,-0.259852 1.418919,0.437186 2.943568,0.676005 4.550919,0.676005 1.608973,0 2.85373,-0.217785 4.04173,-0.484756 5.153189,-1.16788 9.325297,-4.779278 11.407784,-9.302587 0.883783,-1.977532 1.371567,-4.162817 1.371567,-6.45489 -3.24e-4,-8.951155 -7.026162,-15.359122 -15.171892,-16.049366"
       id="path6063"
       inkscape:connector-curvature="0"
       style="fill:#54bbab;fill-rule:nonzero;stroke:none;stroke-width:1" />
    <path
       d="m 37.151204,-25.718584 c -0.614594,8.794856 6.202054,16.451603 15.497189,17.247017 -0.49654,-0.043686 -0.99827,-0.113908 -1.503567,-0.210665 -8.344541,-1.619304 -13.685514,-10.024543 -11.932216,-18.76827 1.742918,-8.682565 9.83027,-14.434915 18.11481,-12.925959 -0.695675,-0.133647 -1.401405,-0.228463 -2.123351,-0.279592 -9.456649,-0.646233 -17.436973,6.039061 -18.052865,14.937469"
       id="path6065"
       inkscape:connector-curvature="0"
       style="fill:#5bc5f2;fill-rule:nonzero;stroke:none;stroke-width:1" />
    <path
       d="m 57.499312,-40.343453 c -8.34454,-1.623188 -16.532108,4.150519 -18.287351,12.892628 -1.753297,8.745668 3.587676,17.148965 11.932216,18.76827 8.346162,1.619628 16.53373,-4.152461 18.287351,-12.89457 1.753298,-8.742108 -3.586054,-17.145729 -11.932216,-18.766328 M 53.97488,-9.775359 c -8.098054,0 -14.659135,-6.550029 -14.659135,-14.630048 0,-8.076459 6.561081,-14.622928 14.659135,-14.622928 8.094486,0 14.659135,6.546469 14.659135,14.622928 0,8.080343 -6.564649,14.630048 -14.659135,14.630048"
       id="path6067"
       inkscape:connector-curvature="0"
       style="fill:#007e92;fill-rule:nonzero;stroke:none;stroke-width:1" />
    <path
       d="m 62.115096,-31.375147 h -5.017297 c -0.918811,0 -1.045946,0.372466 -1.045946,0.934563 0,0 0.0019,8.137943 0.0019,8.148299 -0.06324,1.865565 -0.756973,2.462934 -2.089622,2.462934 -1.364108,0 -2.061405,-0.629082 -2.089621,-2.613733 v -7.997177 c 0,-0.562096 -0.132,-0.934562 -1.04919,-0.934562 h -5.018873 v 9.690909 c 0,2.144511 0.41546,3.05092 1.304433,3.971244 1.375135,1.431616 3.781297,2.034163 6.853297,2.034163 3.072,0 5.480108,-0.602547 6.858487,-2.034163 0.885405,-0.920324 1.304432,-1.826733 1.304432,-3.971244 z"
       id="path6069"
       inkscape:connector-curvature="0"
       style="fill:#e42313;fill-rule:nonzero;stroke:none;stroke-width:1" />
  </g>
  <g
     id="g922"
     style="fill:#007ab0;fill-opacity:1;stroke:none"
     transform="translate(1005.3495,517.17238)">
    <path
       d="m 368.63086,-406.36328 c -3.91312,-0.0147 -7.76226,-0.0138 -11.52539,0.002 -20.07004,0.0841 -37.67662,0.61201 -49.27735,1.69727 -38.70589,3.62097 -60.05345,11.00015 -75.09374,25.95508 -8.58941,8.54057 -12.59678,15.78281 -16.20118,29.28906 l -2.20508,8.26367 v 132 132 l 2.25,12.371094 c 6.0998,33.54888 19.08218,57.1073291 40.45508,73.4121091 21.2048,16.1765899 48.13343,24.6358679 89.29492,28.0488279 18.12681,1.503 79.43441,0.06427 123,-2.886719 28.61571,-1.93833 37.18286,-3.005991 40.25586,-5.019531 5.2185,-3.41928 5.34491,-4.783015 5.03321,-54.234375 -0.2661,-42.21969 -0.42552,-45.895257 -2.10352,-48.367187 -0.9988,-1.47134 -3.20459,-3.15884 -4.90039,-3.75 -2.0844,-0.72661 -26.11749,-1.080903 -74.18359,-1.095703 -67.6851,-0.02091 -71.30246,-0.113675 -75.28516,-1.921875 -7.3611,-3.34205 -7.8164,-5.150801 -7.81641,-31.056641 v -22.5 l 78.5,-0.5 c 62.77761,-0.39986 78.96884,-0.76607 80.83594,-1.83008 4.9423,-2.81659 5.16407,-4.96114 5.16406,-49.66992 0,-45.29327 -0.14369,-46.58212 -5.62109,-50.17187 -2.6239,-1.71966 -7.40628,-1.85771 -80.83398,-2.32813 l -78.04493,-0.5 v -20.5 c 0,-22.9037 0.57668,-25.34901 6.76758,-28.73242 2.9831,-1.63032 8.91502,-1.80624 76.73242,-2.26758 58.61431,-0.39874 73.97404,-0.76905 75.83594,-1.83008 4.9798,-2.83797 5.16406,-4.72947 5.16406,-52.66992 10e-6,-49.2752 -0.0755,-49.93751 -6.0996,-53.05273 -8.45508,-4.37229 -81.40093,-7.93419 -140.09766,-8.1543 z"
       style="fill:#007ab0;fill-opacity:1;stroke:none"
       id="path34"
       inkscape:connector-curvature="0" />
    <path
       d="m -679.81593,-102.39458 c 0,-49.89291 -22.32902,-87.60267 -75.21354,-115.44988 l -83.44002,-43.51126 c -19.39099,-9.86255 -21.74142,-13.34346 -21.74142,-18.5648 0,-4.64121 2.35043,-9.28241 12.33972,-9.28241 44.07044,0 111.64511,5.22136 142.78822,8.70225 9.98929,1.1603 11.75211,-4.6412 11.75211,-11.603 v -86.44238 c 0,-6.38164 -5.28845,-9.86254 -11.75211,-11.603 -25.85466,-8.12209 -92.25412,-16.2442 -142.78822,-16.2442 -122.80961,0 -157.47831,54.53411 -157.47831,117.77048 0,46.41201 14.6901,89.34312 70.51265,121.25138 l 88.14087,50.47307 c 13.51494,7.54195 16.45296,12.18315 16.45296,17.984652 0,10.442703 -4.70084,17.984654 -21.7414,17.984654 -38.78199,0 -101.65582,-7.541951 -126.33525,-9.862552 -9.4017,-1.1603 -12.33973,5.221352 -12.33973,11.603004 V 7.2538003 c 0,6.3816517 5.87606,9.8625527 12.33973,11.6030037 32.90592,9.862552 75.80114,17.404504 126.33525,17.404504 123.39722,0 172.16849,-70.778319 172.16849,-138.655888 z"
       style="font-style:normal;font-variant:normal;font-weight:normal;font-stretch:normal;font-size:medium;line-height:1.25;font-family:'Neo Sans Std';-inkscape-font-specification:'Neo Sans Std';letter-spacing:0.5px;word-spacing:0px;fill:#007ab0;fill-opacity:1;stroke:none;stroke-width:3.04096913"
       id="path77"
       inkscape:connector-curvature="0" />
    <path
       d="m -252.68336,-135.46314 v -253.52562 c 0,-6.38164 -5.87606,-11.603 -12.33973,-11.603 h -114.58313 c -6.46366,0 -11.75212,5.22136 -11.75212,11.603 v 253.52562 c 0,45.831864 -16.45296,55.694417 -47.00846,55.694417 -30.5555,0 -47.00846,-9.862553 -47.00846,-55.694417 v -253.52562 c 0,-6.38164 -5.28846,-11.603 -11.75212,-11.603 h -114.58313 c -6.46367,0 -12.33973,5.22136 -12.33973,11.603 v 253.52562 c 0,149.098592 94.60454,171.724448 185.68344,171.724448 91.0789,0 185.68344,-22.625856 185.68344,-171.724448 z"
       style="font-style:normal;font-variant:normal;font-weight:normal;font-stretch:normal;font-size:medium;line-height:1.25;font-family:'Neo Sans Std';-inkscape-font-specification:'Neo Sans Std';letter-spacing:0.5px;word-spacing:0px;fill:#007ab0;fill-opacity:1;stroke:none;stroke-width:3.04096913"
       id="path79"
       inkscape:connector-curvature="0" />
    <path
       d="m 170.9054,-250.91302 v -4.06105 c 0,-121.83153 -104.593836,-151.41919 -190.384284,-151.41919 -40.544801,0 -99.305376,2.3206 -128.685676,6.9618 -31.73071,5.22135 -41.1324,13.34345 -41.1324,49.31276 V 21.177404 c 0,6.381652 5.87606,9.282402 12.33973,9.282402 h 112.820304 c 6.463664,0 11.752116,-5.22135 11.752116,-11.603002 V -100.65413 c 16.452962,0.58016 24.091839,1.1603 35.843954,1.1603 82.264814,0 187.446256,-30.74796 187.446256,-151.41919 z m -137.499762,0 c 0,24.94645 -19.978597,37.12961 -49.946494,37.12961 H -52.38481 v -78.32027 h 35.843954 c 29.967897,0 49.946494,11.02286 49.946494,37.12961 z"
       style="font-style:normal;font-variant:normal;font-weight:normal;font-stretch:normal;font-size:medium;line-height:1.25;font-family:'Neo Sans Std';-inkscape-font-specification:'Neo Sans Std';letter-spacing:0.5px;word-spacing:0px;fill:#007ab0;fill-opacity:1;stroke:none;stroke-width:3.04096913"
       id="path81"
       inkscape:connector-curvature="0" />
    <path
       d="m 955.30924,20.339334 c 0,-1.740451 -0.5876,-4.061052 -1.76281,-6.381652 L 872.45682,-137.46151 c 31.73072,-13.92361 67.57468,-50.47306 67.57468,-112.54913 v -11.603 c 0,-109.64838 -73.45074,-144.45739 -191.5595,-144.45739 -40.5448,0 -108.70708,4.06105 -128.68567,6.9618 -31.73071,5.22135 -41.13241,13.34345 -41.13241,49.31276 V 19.179034 c 0,6.381652 5.87606,11.603002 12.33972,11.603002 h 114.58314 c 6.46366,0 11.75211,-5.22135 11.75211,-11.603002 V -117.15626 h 18.80339 l 69.92509,136.335294 c 2.93803,5.8015 5.28845,11.603002 15.86535,11.603002 h 122.80962 c 5.28845,0 10.5769,-4.06105 10.5769,-10.442702 z M 801.94412,-249.43049 c 0,15.66406 -11.1645,30.74796 -40.5448,30.74796 h -44.07043 v -73.09892 h 44.07043 c 29.9679,0 40.5448,11.02286 40.5448,30.74796 z"
       style="font-style:normal;font-variant:normal;font-weight:normal;font-stretch:normal;font-size:medium;line-height:1.25;font-family:'Neo Sans Std';-inkscape-font-specification:'Neo Sans Std';letter-spacing:0.5px;word-spacing:0px;fill:#007ab0;fill-opacity:1;stroke:none;stroke-width:3.04096913"
       id="path85"
       inkscape:connector-curvature="0" />
  </g>
</svg>
