<svg width="20" height="20" viewBox="0 0 20 20" fill="none" xmlns="http://www.w3.org/2000/svg">
<g clip-path="url(#clip0_133_371)">
<path d="M10.0033 0C5.82836 0 4.60735 0.0043086 4.37001 0.0239999C3.51325 0.0952365 2.98013 0.230173 2.39931 0.519421C1.9517 0.741755 1.59869 0.999466 1.25029 1.36073C0.6158 2.01955 0.231256 2.83008 0.0920485 3.79355C0.0243722 4.26128 0.00468074 4.35667 0.000681995 6.7458C-0.000852494 7.54218 0.000681995 8.59026 0.000681995 9.99607C0.000681995 14.1687 0.00529299 15.3888 0.0252943 15.6258C0.0945125 16.4597 0.225254 16.9844 0.502127 17.5583C1.03126 18.6568 2.04183 19.4815 3.23238 19.7892C3.64462 19.8954 4.09991 19.9538 4.68442 19.9815C4.93207 19.9923 7.4562 20 9.98188 20C12.5076 20 15.0332 19.9969 15.2747 19.9846C15.9515 19.9528 16.3445 19.9 16.7791 19.7877C17.9773 19.4784 18.9694 18.666 19.5093 17.5521C19.7808 16.992 19.9185 16.4474 19.9808 15.657C19.9943 15.4847 20 12.7372 20 9.99346C20 7.24923 19.9938 4.50684 19.9803 4.33451C19.9172 3.53137 19.7796 2.99133 19.4993 2.42051C19.2694 1.95324 19.014 1.60428 18.6433 1.24749C17.9818 0.615435 17.1727 0.230786 16.2086 0.0916989C15.7414 0.0241512 15.6484 0.00414992 13.258 0H10.0033Z" fill="#85CAE8"/>
<path d="M10.0033 0C5.82836 0 4.60735 0.0043086 4.37001 0.0239999C3.51325 0.0952365 2.98013 0.230173 2.39931 0.519421C1.9517 0.741755 1.59869 0.999466 1.25029 1.36073C0.6158 2.01955 0.231256 2.83008 0.0920485 3.79355C0.0243722 4.26128 0.00468074 4.35667 0.000681995 6.7458C-0.000852494 7.54218 0.000681995 8.59026 0.000681995 9.99607C0.000681995 14.1687 0.00529299 15.3888 0.0252943 15.6258C0.0945125 16.4597 0.225254 16.9844 0.502127 17.5583C1.03126 18.6568 2.04183 19.4815 3.23238 19.7892C3.64462 19.8954 4.09991 19.9538 4.68442 19.9815C4.93207 19.9923 7.4562 20 9.98188 20C12.5076 20 15.0332 19.9969 15.2747 19.9846C15.9515 19.9528 16.3445 19.9 16.7791 19.7877C17.9773 19.4784 18.9694 18.666 19.5093 17.5521C19.7808 16.992 19.9185 16.4474 19.9808 15.657C19.9943 15.4847 20 12.7372 20 9.99346C20 7.24923 19.9938 4.50684 19.9803 4.33451C19.9172 3.53137 19.7796 2.99133 19.4993 2.42051C19.2694 1.95324 19.014 1.60428 18.6433 1.24749C17.9818 0.615435 17.1727 0.230786 16.2086 0.0916989C15.7414 0.0241512 15.6484 0.00414992 13.258 0H10.0033Z" fill="#85CAE8"/>
<path d="M10.0033 0C5.82836 0 4.60735 0.0043086 4.37001 0.0239999C3.51325 0.0952365 2.98013 0.230173 2.39931 0.519421C1.9517 0.741755 1.59869 0.999466 1.25029 1.36073C0.6158 2.01955 0.231256 2.83008 0.0920485 3.79355C0.0243722 4.26128 0.00468074 4.35667 0.000681995 6.7458C-0.000852494 7.54218 0.000681995 8.59026 0.000681995 9.99607C0.000681995 14.1687 0.00529299 15.3888 0.0252943 15.6258C0.0945125 16.4597 0.225254 16.9844 0.502127 17.5583C1.03126 18.6568 2.04183 19.4815 3.23238 19.7892C3.64462 19.8954 4.09991 19.9538 4.68442 19.9815C4.93207 19.9923 7.4562 20 9.98188 20C12.5076 20 15.0332 19.9969 15.2747 19.9846C15.9515 19.9528 16.3445 19.9 16.7791 19.7877C17.9773 19.4784 18.9694 18.666 19.5093 17.5521C19.7808 16.992 19.9185 16.4474 19.9808 15.657C19.9943 15.4847 20 12.7372 20 9.99346C20 7.24923 19.9938 4.50684 19.9803 4.33451C19.9172 3.53137 19.7796 2.99133 19.4993 2.42051C19.2694 1.95324 19.014 1.60428 18.6433 1.24749C17.9818 0.615435 17.1727 0.230786 16.2086 0.0916989C15.7414 0.0241512 15.6484 0.00414992 13.258 0H10.0033Z" fill="#85CAE8"/>
<path d="M10.0033 0C5.82836 0 4.60735 0.0043086 4.37001 0.0239999C3.51325 0.0952365 2.98013 0.230173 2.39931 0.519421C1.9517 0.741755 1.59869 0.999466 1.25029 1.36073C0.6158 2.01955 0.231256 2.83008 0.0920485 3.79355C0.0243722 4.26128 0.00468074 4.35667 0.000681995 6.7458C-0.000852494 7.54218 0.000681995 8.59026 0.000681995 9.99607C0.000681995 14.1687 0.00529299 15.3888 0.0252943 15.6258C0.0945125 16.4597 0.225254 16.9844 0.502127 17.5583C1.03126 18.6568 2.04183 19.4815 3.23238 19.7892C3.64462 19.8954 4.09991 19.9538 4.68442 19.9815C4.93207 19.9923 7.4562 20 9.98188 20C12.5076 20 15.0332 19.9969 15.2747 19.9846C15.9515 19.9528 16.3445 19.9 16.7791 19.7877C17.9773 19.4784 18.9694 18.666 19.5093 17.5521C19.7808 16.992 19.9185 16.4474 19.9808 15.657C19.9943 15.4847 20 12.7372 20 9.99346C20 7.24923 19.9938 4.50684 19.9803 4.33451C19.9172 3.53137 19.7796 2.99133 19.4993 2.42051C19.2694 1.95324 19.014 1.60428 18.6433 1.24749C17.9818 0.615435 17.1727 0.230786 16.2086 0.0916989C15.7414 0.0241512 15.6484 0.00414992 13.258 0H10.0033Z" fill="#85CAE8"/>
<path d="M10.004 2.56787C7.9845 2.56787 7.73105 2.57669 6.93785 2.61276C6.14622 2.64899 5.60586 2.77423 5.13304 2.95799C4.64396 3.14777 4.22908 3.40165 3.81576 3.81482C3.40213 4.22785 3.14805 4.64241 2.9575 5.13097C2.77315 5.6036 2.64766 6.1437 2.61203 6.93445C2.57656 7.72705 2.56726 7.98047 2.56726 9.9985C2.56726 12.0165 2.57625 12.269 2.61218 13.0616C2.6486 13.8527 2.77393 14.3926 2.95766 14.8651C3.14774 15.3538 3.40181 15.7684 3.81529 16.1814C4.22847 16.5947 4.64334 16.8492 5.13211 17.039C5.60523 17.2228 6.14576 17.348 6.93723 17.3842C7.73043 17.4203 7.98372 17.4291 10.0031 17.4291C12.0228 17.4291 12.2755 17.4203 13.0686 17.3842C13.8603 17.348 14.4013 17.2228 14.8744 17.039C15.3633 16.8492 15.7776 16.5947 16.1908 16.1814C16.6044 15.7684 16.8585 15.3538 17.049 14.8653C17.2318 14.3926 17.3573 13.8525 17.3945 13.0618C17.4301 12.2692 17.4394 12.0165 17.4394 9.9985C17.4394 7.98046 17.4301 7.72721 17.3945 6.9346C17.3573 6.14355 17.2318 5.6036 17.049 5.13113C16.8585 4.64241 16.6044 4.22784 16.1908 3.81482C15.7771 3.40149 15.3635 3.14761 14.8739 2.95798C14.3999 2.77423 13.8592 2.64899 13.0676 2.61276C12.2744 2.57669 12.0219 2.56787 10.0017 2.56787H10.004ZM9.33694 3.90694C9.53493 3.90663 9.75585 3.90694 10.004 3.90694C11.9895 3.90694 12.2248 3.91406 13.0088 3.94966C13.7339 3.98279 14.1274 4.10384 14.3895 4.20555C14.7365 4.34023 14.9839 4.50123 15.244 4.7613C15.5043 5.02137 15.6654 5.26906 15.8005 5.61582C15.9023 5.87744 16.0236 6.27064 16.0566 6.99513C16.0922 7.77844 16.1 8.01375 16.1 9.9968C16.1 11.9798 16.0922 12.2152 16.0566 12.9985C16.0234 13.7229 15.9023 14.1162 15.8005 14.3778C15.6657 14.7245 15.5043 14.9715 15.244 15.2314C14.9838 15.4914 14.7367 15.6524 14.3895 15.7871C14.1277 15.8893 13.7339 16.01 13.0088 16.0432C12.225 16.0788 11.9895 16.0865 10.004 16.0865C8.01842 16.0865 7.7831 16.0788 6.9992 16.0432C6.27418 16.0097 5.88069 15.8887 5.61841 15.787C5.27138 15.6523 5.02351 15.4913 4.76325 15.2312C4.50298 14.9711 4.34187 14.7241 4.20677 14.3771C4.10499 14.1155 3.98369 13.7223 3.9507 12.9978C3.91506 12.2145 3.90793 11.9792 3.90793 9.99494C3.90793 8.01066 3.91506 7.77658 3.9507 6.99328C3.98385 6.26878 4.10499 5.87559 4.20677 5.61366C4.34155 5.26689 4.50298 5.01921 4.76325 4.75914C5.02351 4.49906 5.27138 4.33807 5.61841 4.20308C5.88053 4.1009 6.27418 3.98016 6.9992 3.94687C7.68519 3.91591 7.95103 3.90663 9.33695 3.90507L9.33694 3.90694ZM13.9734 5.14072C13.4807 5.14072 13.081 5.53966 13.081 6.03209C13.081 6.52437 13.4807 6.92377 13.9734 6.92377C14.466 6.92377 14.8657 6.52437 14.8657 6.03209C14.8657 5.53981 14.466 5.14042 13.9734 5.14042L13.9734 5.14072ZM10.004 6.18256C7.8951 6.18256 6.18526 7.89114 6.18526 9.9985C6.18526 12.1059 7.8951 13.8137 10.004 13.8137C12.113 13.8137 13.8222 12.1059 13.8222 9.9985C13.8222 7.89114 12.1128 6.18256 10.0039 6.18256H10.004ZM10.004 7.52162C11.3729 7.52162 12.4827 8.63049 12.4827 9.9985C12.4827 11.3664 11.3729 12.4754 10.004 12.4754C8.63501 12.4754 7.52531 11.3664 7.52531 9.9985C7.52531 8.63049 8.63501 7.52162 10.004 7.52162Z" fill="#FFFEF4"/>
</g>
<defs>
<clipPath id="clip0_133_371">
<rect width="20" height="20" fill="white"/>
</clipPath>
</defs>
</svg>
