<svg width="746" height="731" viewBox="0 0 746 731" fill="none" xmlns="http://www.w3.org/2000/svg">
<g clip-path="url(#clip0_120_676)">
<path d="M603.919 260.617L608.244 258.48L607.044 255.317L608.744 253.854L607.844 253.117L609.506 246.904L612.444 245.217L616.419 238.392L615.519 235.617L622.769 222.792L621.769 220.504L618.494 221.004L616.369 219.517L618.044 217.554L616.831 215.942L618.506 210.005L617.081 207.729L619.381 208.179L615.806 206.104L621.006 205.854L623.769 203.917L628.244 195.492L626.219 195.304L625.019 192.979L628.769 187.079L625.356 183.892L625.919 182.767L620.381 180.954L618.981 184.354L616.481 185.729L617.044 183.617L615.119 183.267L615.069 181.055L617.356 179.604L615.044 179.879L614.944 178.655L610.069 177.167L609.506 174.029L611.306 174.042L611.919 171.829L614.094 172.23L615.919 163.617L617.519 162.667L618.981 168.305L627.706 170.829L627.531 172.267L629.356 173.229L635.906 171.255L640.306 174.092L642.469 172.154L645.494 164.542L650.444 164.304L650.594 165.329L653.644 163.567L657.394 166.117L660.894 164.192L669.156 169.555L676.394 171.442L672.069 176.292L668.981 184.317L662.881 187.867L662.469 190.63L655.994 196.967L653.969 201.43L654.281 206.854L652.331 208.767L650.469 216.242L651.106 221.479L648.431 223.454L647.044 229.679L642.394 237.529L642.019 244.229L644.756 249.042L641.344 256.217L639.944 263.917L640.894 267.417L639.006 270.217L643.144 277.354L642.719 279.555L638.344 282.33L639.981 283.217L638.269 283.779L638.969 285.492L637.794 286.692L634.831 285.704L634.281 286.842L636.081 287.554L632.494 290.53L629.494 289.83L625.069 291.354L624.494 289.979L621.269 289.63L622.919 285.792L619.319 285.104L619.869 283.442L616.906 278.217L612.719 277.505L614.819 272.167L614.331 268.242L609.319 264.542L605.481 263.655L603.919 260.617Z" fill="#85CAE8" stroke="#3CA7D5" stroke-width="1.25"/>
<path d="M281.881 420.142L283.094 421.755L286.606 421.217L289.406 423.305L288.194 426.98L291.331 430.142L294.281 426.605L295.756 428.205L302.031 427.492L305.519 433.38L307.106 432.142L309.731 433.767L307.369 437.455L316.331 440.58L314.406 442.867L317.931 444.58L314.856 448.692L313.381 448.767L312.894 452.405L315.519 453.742L312.919 457.405L316.094 458.555L314.594 460.205L314.331 460.23L317.081 462.63L322.456 463.23L320.694 464.68L324.331 470.942L322.369 472.067L322.581 472.93L324.044 478.542L322.544 478.98L323.994 481.305L319.931 483.905L320.144 486.28L316.631 487.38L317.544 491.442L312.781 495.542L308.869 496.542L309.181 498.792L306.119 502.092L306.619 503.555L302.006 506.192L300.256 505.68L302.094 508.38L302.119 512.817L304.081 514.117L304.381 518.53L298.694 518.817L298.144 520.005L297.056 517.192L295.806 517.405L294.406 522.53L298.631 525.105L296.344 531.13L293.581 531.605L295.244 532.255L295.694 534.93L294.031 535.742L290.244 534.517L290.706 536.855L288.556 537.117L287.644 540.405L283.681 543.092L280.006 539.067L278.081 540.88L273.156 540.817L272.181 542.78L265.544 544.192L264.806 545.542L261.194 543.292L259.156 543.792L257.331 546.83L255.794 544.755L252.094 547.655L253.156 550.867L252.269 552.342L248.119 549.98L249.556 548.192L247.319 546.017L244.231 550.03L239.894 549.255L236.781 552.242L239.544 554.342L238.394 555.105L239.181 558.53L237.469 558.655L239.119 563.73L236.256 565.88L236.656 569.63L234.594 570.467L234.706 572.23L236.381 572.417L236.831 574.78L240.019 573.805L244.206 574.83L244.356 577.58L245.769 577.242L248.256 582.655L245.794 583.292L245.719 587.005L249.169 584.555L249.019 589.755L250.744 591.605L246.806 594.792L248.306 596.992L246.644 600.68L245.406 600.38L245.681 603.642L243.106 603.43L241.619 607.055L239.181 608.092L239.856 612.505L235.669 613.542L234.256 615.792L234.606 620.83L232.206 622.005L232.944 626.792L228.719 630.355L226.219 630.605L222.919 628.355L220.544 631.842L213.981 624.292L211.194 623.455L210.044 618.405L200.219 619.442L191.344 614.442L189.894 615.58L188.781 613.655L185.406 612.242L183.656 613.067L181.244 611.305L183.231 607.767L179.431 609.455L178.931 614.13L174.469 612.88L172.756 609.905L175.806 607.117L177.494 602.755L177.156 597.88L169.556 595.33L168.119 595.73L167.419 598.467L165.756 598.305L164.931 594.392L159.481 595.142L159.056 592.717L156.494 591.267L156.406 589.605L162.694 588.542L166.181 585.355L174.156 570.055L181.919 529.655L183.994 505.605L187.269 497.267L197.106 498.93L196.394 495.817L193.719 494.555L195.569 494.53L188.644 488.755L185.256 494.767L184.519 500.455L183.731 499.155L189.156 437.417L192.394 431.455L194.131 430.18L195.231 432.942L193.231 433.292L194.544 433.38L193.844 434.755L207.456 446.955L213.381 466.855L218.319 471.667L214.506 462.83L212.081 448.317L218.294 448.842L218.719 446.942L219.881 450.63L227.144 451.955L228.344 458.717L228.406 459.042L229.331 461.855L230.394 459.917L231.706 460.167L232.944 462.255L234.706 461.905L235.819 463.942L239.344 465.442L241.794 465.792L244.681 463.442L246.956 465.13L247.331 462.092L249.456 461.155L248.256 460.28L249.669 457.505L252.144 455.705L256.244 457.242L258.344 453.217L263.056 450.542L262.081 445.217L263.569 440.955L265.694 440.242L264.931 438.58L266.394 439.855L268.994 436.63L271.644 436.617L272.544 433.83L275.419 431.78L275.756 425.78L278.581 425.742L281.881 420.142ZM245.269 594.417L244.969 589.955L244.481 589.717L244.681 592.405L243.169 593.017L244.419 594.217L245.269 594.417ZM243.281 594.255L242.919 594.53L241.906 596.942L242.881 599.13L245.044 597.58L243.756 594.43L243.456 594.23L243.281 594.255Z" fill="#85CAE8" stroke="#3CA7D5" stroke-width="1.25"/>
<path d="M367.519 367.217L368.444 363.429L369.731 363.417L371.681 359.954L378.231 358.754L380.806 359.767L384.856 357.192L384.294 354.092L382.356 353.017L383.881 350.717L382.544 349.229L384.356 348.292L385.544 349.254L385.356 346.867L389.369 344.729L390.106 342.717L392.456 344.854L394.406 343.504L396.881 344.192L400.744 339.117L406.481 338.967L407.869 342.267L415.219 347.904L418.819 344.842L422.856 347.329L424.531 345.167L426.681 345.067L428.556 349.779L433.956 346.954L433.269 344.404L435.831 344.292L435.406 341.467L437.294 341.992L437.994 345.604L443.094 353.517L443.381 358.292L446.681 359.792L448.419 358.842L449.981 362.092L454.181 361.729L456.756 364.067L455.531 368.817L455.981 374.042L457.006 374.142L453.994 374.579L451.531 378.004L451.194 378.092L450.744 378.154L444.719 380.754L446.831 386.454L446.019 390.267L447.494 392.004L446.656 394.629L447.994 398.667L445.744 400.592L441.269 400.867L440.856 403.804L444.056 407.079L442.031 408.254L442.394 412.454L440.656 414.117L445.419 419.017L445.231 421.504L447.656 425.929L453.369 429.879L456.019 435.954L454.906 440.367L451.056 443.379L451.844 447.867L454.106 444.779L456.056 445.079L457.744 448.317L457.869 446.742L460.494 447.729L461.019 446.079L464.781 445.592L464.319 444.192L466.069 443.542L468.894 443.804L470.919 446.092L474.156 445.342L475.856 447.692L473.994 449.054L476.031 450.254L474.906 452.229L476.794 453.592L479.394 452.229L482.231 456.042L479.994 460.617L480.506 463.679L479.381 464.342L478.719 462.404L476.169 461.854L477.469 464.042V464.704L476.044 464.604L474.769 466.792L476.481 469.717L472.156 470.979L473.056 474.367L468.444 475.092L464.894 481.679L458.569 481.729L458.244 484.554L456.781 485.554L455.869 484.604L456.169 486.167L454.144 485.042L452.806 489.292L449.581 491.067L448.244 490.804L448.619 489.029L446.881 489.579L444.369 486.942L443.444 484.217L439.456 484.904L439.806 482.867L437.556 481.067L435.669 481.467L435.406 485.092L429.669 486.304L426.494 479.817L426.406 476.642L424.119 474.204L419.681 477.729L417.406 477.092L417.106 480.592L414.819 482.429L411.681 479.429L410.531 482.192H410.231L409.994 484.529L408.619 484.242L407.256 486.979L406.894 493.129L403.919 498.317L401.581 495.729L400.281 489.804L401.606 488.879L400.744 487.454L399.069 487.767L397.581 481.567L393.081 482.917L393.156 478.817L391.219 476.679L384.356 483.654L384.131 487.579L381.506 490.392L382.044 492.817L378.894 495.079L378.081 497.867L371.256 498.604L369.919 496.429L368.281 496.579L364.219 497.904L363.569 500.254L361.819 498.742L361.206 494.592L359.694 494.517L361.869 487.829L357.694 481.642L358.306 478.217L356.156 474.179L358.219 473.642L358.656 473.754L360.381 472.317L358.081 468.029L361.944 466.404L362.281 462.379L365.019 460.292L363.381 459.129L363.031 456.167L371.631 447.692L371.056 442.154L377.906 445.242L380.381 443.617L378.269 441.617L379.844 431.642L376.919 428.554L378.206 425.242L380.056 425.142L380.156 420.104L373.131 411.567L376.669 408.529L376.894 408.479L378.544 408.704L381.869 405.004L382.269 401.804L384.719 400.667L384.206 395.979L381.531 392.167L382.344 387.004L378.006 377.679L375.369 376.479L374.844 377.454L373.094 373.829L371.906 375.417L368.656 372.954L370.294 370.779L367.881 370.092L367.519 367.217Z" fill="#85CAE8" stroke="#3CA7D5" stroke-width="1.25"/>
<path d="M505.581 257.142L503.644 252.93L501.894 253.192L501.431 254.842L499.931 253.879L501.681 251.442L500.656 249.879L497.494 249.742L498.769 247.717L497.931 246.379L493.106 244.992L486.806 244.592L484.594 246.342L485.556 249.317L473.094 249.842L471.969 252.654L469.469 252.254L468.519 249.017L466.881 249.38L467.269 251.379L465.444 249.979L464.794 250.329L462.481 252.58L459.881 251.055L459.081 252.642L456.994 251.304L451.306 252.33L452.269 248.429L451.294 246.742L450.544 248.504L449.069 248.179L448.419 246.567L450.119 245.705L447.544 243.454L445.931 237.742L443.256 236.605L443.706 234.017L441.944 233.367L442.381 234.767L439.494 236.017L437.581 232.142L434.906 232.554L437.106 229.367L436.031 228.83L436.981 226.017L434.819 224.83L435.331 223.542L430.994 218.404L429.056 217.642L427.069 219.017L426.344 216.554L424.344 215.792L423.769 217.942L422.269 218.142L412.144 217.917L410.219 219.767L407.306 218.954L405.644 223.179L407.306 227.479L405.081 230.805L401.606 232.629L401.594 234.205L406.394 236.517L405.694 237.855L406.719 237.779L407.444 241.167L411.331 244.529L410.019 245.329L411.506 248.942L409.781 250.954L409.469 251.217L405.344 254.092L404.644 257.092L406.556 258.442L406.181 263.292L397.169 265.567L396.969 268.679L398.556 268.417L401.031 271.379L402.444 274.205L401.569 277.755L403.644 280.017L397.631 281.729V281.454L396.981 282.417L401.269 290.067L397.994 297.68L403.906 303.529L406.444 314.229L405.781 318.555L408.894 321.629L408.981 326.792L407.419 330.442L408.444 334.667L406.481 338.967L407.869 342.267L415.219 347.905L418.819 344.842L422.856 347.329L424.531 345.167L426.681 345.067L428.556 349.78L433.956 346.954L433.269 344.404L435.831 344.292L435.406 341.467L437.294 341.992L437.994 345.604L443.094 353.517L443.381 358.292L446.681 359.792L448.419 358.842L449.981 362.092L454.181 361.73L456.756 364.067L455.531 368.817L455.981 374.042L457.006 374.142L453.994 374.58L451.531 378.005L451.081 382.604L455.356 383.48L456.219 385.98L462.106 383.767L466.019 385.63L467.544 384.092L468.481 385.342L469.969 384.604L469.731 386.779L471.056 386.942L476.106 384.73L477.819 376.517L480.569 376.417L482.919 378.63L486.269 376.655L488.856 378.779L489.844 376.13L492.056 375.742L493.644 377.804L492.031 379.279L494.969 381.192L494.106 384.079L496.119 385.755L497.244 385.454L505.606 359.805L506.106 361.142L507.844 360.092L511.619 362.392L517.319 360.905L517.381 359.767L519.356 360.779L520.894 364.354L524.969 365.229L525.456 363.967L530.294 362.93L530.494 361.017L527.294 359.717L527.231 356.517L529.619 355.054L529.181 352.892L531.544 350.842L529.144 347.28L529.006 344.004L527.344 343.904L528.931 340.842L525.619 337.442L532.806 335.542L529.531 333.429L529.356 331.617L525.731 331.992L523.906 328.042L522.356 328.867L521.856 325.117L525.169 322.479L522.944 321.429L523.381 319.73L528.631 317.217L531.444 312.479L531.419 312.092L533.969 301.529L535.594 300.417L533.181 299.404H533.006L534.369 297.529L533.769 293.542L533.569 293.417L531.419 293.567H531.094L531.431 289.142L527.706 288.067L529.844 287.092L528.781 286.792L529.381 285.43L531.944 285.53L534.469 281.104L531.569 275.379L529.156 278.092L527.994 277.292L527.106 278.367L524.594 276.955L521.744 279.467L522.144 275.98L517.694 273.679L517.956 271.517L514.794 274.117L511.481 272.442L511.856 270.367L510.206 270.592L510.169 269.192L507.044 271.067L506.544 265.217L504.294 264.817L508.269 261.667L506.269 257.142H505.581Z" fill="#85CAE8" stroke="#3CA7D5" stroke-width="1.25"/>
<path d="M80.6437 293.955L82.1937 295.817L85.3437 295.742L86.2562 298.405L90.3062 299.555L89.6062 301.68L81.1312 300.43L79.8437 296.655L80.6437 293.955ZM81.8437 179.18L82.1062 181.967L89.0687 179.142V182.942L92.8937 182.705L93.2937 184.542L91.2437 186.08L97.2062 188.005L96.3437 190.73L102.994 196.38L102.744 200.567L108.356 203.655L106.969 206.092L108.431 205.48L110.444 208.98L109.994 205.48L112.856 206.305L116.631 200.217L120.831 198.43L120.056 196.667L122.719 196.067L123.619 197.905L128.881 193.255L130.694 194.842L127.919 198.63L129.119 199.417L132.781 196.73L134.481 201.217L133.769 204.105L135.231 199.355L136.106 202.067L137.594 198.792L138.944 200.155L137.519 197.592L142.944 197.167L143.494 200.23L145.569 201.58L144.631 202.43L146.819 204.605L146.169 208.405L147.231 206.005L148.594 206.467L146.094 201.48L148.131 202.567L147.431 200.905L144.744 200.342L145.531 199.017L143.681 197.505L145.844 193.68L153.531 191.417L153.931 193.992L152.231 197.23L156.919 199.892L167.594 197.517L171.919 208.88L175.406 211.08L178.906 210.455L184.106 204.592L193.644 207.38L193.069 214.692L194.931 221.38L192.031 226.255L193.194 231.142L193.406 231.342L196.419 246.667L189.231 249.63L184.481 264.155L178.431 262.417L177.144 260.18L172.444 259.63L172.744 262.117L165.006 265.155L163.044 269.305L152.656 269.38L147.731 272.242L146.781 270.517L141.144 273.892L140.294 282.867L137.219 283.73L136.894 286.167L135.781 284.417L132.669 285.805L129.881 284.142L128.906 288.367L124.531 288.73L123.406 287.142L121.619 289.355L119.669 289.205L119.344 285.98L122.494 285.505L118.931 283.517L103.056 286.43L98.0812 281.305L95.3937 281.292L94.0187 279.28L93.2312 280.292L92.1812 278.317L92.4312 280.23L87.0687 280.067L86.8312 284.342L89.3312 287.792L86.6562 287.455L85.0312 283.155L86.4562 281.967L85.7062 278.067L78.6187 271.167L74.7562 271.117L74.4812 269.205L69.9312 270.355L66.1062 265.13L58.2312 264.18L55.7062 261.955L49.1062 263.055L46.6562 259.68L47.7187 257.817L46.2187 258.48L44.3687 254.442L42.1437 255.917L42.8937 258.142L39.4312 259.042L36.0937 256.842L33.9812 257.98L31.6562 262.63L22.5187 262.642L23.0062 255.58L19.7437 249.817L15.0937 246.505L12.0687 246.917L8.7812 244.692L3.3562 243.892L4.9187 243.542L4.5187 241.917L19.9812 238.63L25.7687 240.005L27.7312 236.855L25.2187 231.105L17.5437 228.38L15.7187 228.905L12.6062 233.705L11.9187 228.717L13.4187 227.58L9.3562 227.167L9.0062 225.205L12.0437 225.005L11.9562 221.23L13.9937 220.43L12.7812 223.38L13.8437 224.83L15.7062 222.705L15.5437 225.08L18.1812 223.855L20.9562 225.555L25.6812 223.755L28.0937 225.13L30.1187 222.517L28.7687 223.642L24.1187 222.417L25.9062 221.205L24.4062 220.492L25.1062 218.73L22.2562 221.542L19.9937 221.667L21.0187 220.292L17.8562 221.517L20.8687 217.105L19.6437 216.13L10.1062 220.605L6.2812 219.28L4.9062 221.142L1.5187 221.305L0.606201 218.817L2.0937 217.18L0.356201 214.767L2.1312 210.567L1.3062 206.805L3.7437 203.63L9.9437 202.042L10.1812 199.88L12.3687 200.367L13.4812 197.317L15.7187 198.555L20.7937 197.292L18.9562 195.942L23.6562 194.167L26.2562 195.155L26.2687 197.58L31.4937 196.155L30.0812 195.617L31.9562 193.405L36.4437 192.742L38.5562 194.242L38.8687 191.917L41.2312 190.23L41.5562 191.467L43.1562 190.242L43.0687 194.417L45.1562 195.305L45.4687 192.48L45.5687 194.417L49.5812 195.48L49.1187 193.205L50.3437 191.242L50.9062 192.317L50.7562 190.867L58.2062 193.467L60.0687 192.705L59.3062 195.617L61.1437 193.467L63.2812 194.717L63.1937 190.455L65.0062 188.83L63.1437 187.88L64.0562 184.892L63.0187 184.03L64.6937 185.167L67.3062 181.417L67.9812 182.905L68.5437 181.555L69.6437 183.28L71.2562 182.867L70.5937 184.655L72.8062 184.492L76.8562 181.492L79.8062 181.805L81.8437 179.18Z" fill="#85CAE8" stroke="#3CA7D5" stroke-width="1.25"/>
<path d="M327.106 173.492L330.319 177.43L329.419 179.017L332.144 181.442L331.269 187.605L333.619 188.73L331.031 192.18L332.856 193.28L332.331 195.142L335.644 199.13L338.181 199.105L337.869 202.03L341.919 203.867L341.331 207.017L342.669 210.655L346.206 212.705L349.344 211.405L349.219 215.38L351.794 215.73L352.344 218.692L350.769 222.817L351.531 224.517L361.444 223.705L360.831 222.342L362.369 222.705L363.494 220.155L365.706 221.105L365.681 223.705L368.456 222.63L368.731 222.117L369.969 221.017L371.594 222.98L373.944 222.367L374.956 226.717L379.806 229.342L379.831 233.892L378.044 234.08L375.994 237.242L381.994 235.917L389.581 237.28L392.106 235.58L391.181 233.917L392.556 234.955L394.431 233.767L395.494 236.78L397.919 234.742L401.594 234.205L406.394 236.517L405.694 237.855L406.719 237.78L407.444 241.167L411.331 244.53L410.019 245.33L411.506 248.942L409.781 250.955L409.469 251.217L405.344 254.092L404.644 257.092L406.556 258.442L406.181 263.292L397.169 265.567L396.969 268.68L398.556 268.417L401.031 271.38L402.444 274.205L401.569 277.755L403.644 280.017L397.631 281.73V281.455L396.981 282.417L401.269 290.067L397.994 297.68L403.906 303.53L406.444 314.23L405.781 318.555L408.894 321.63L408.981 326.792L407.419 330.442L408.444 334.667L406.481 338.967L400.744 339.117L396.881 344.192L394.406 343.505L392.456 344.855L390.106 342.717L389.369 344.73L385.356 346.867L385.544 349.255L384.356 348.292L382.544 349.23L383.881 350.717L382.356 353.017L384.294 354.092L384.856 357.192L380.806 359.767L378.231 358.755L371.681 359.955L369.731 363.417L368.444 363.43L367.519 367.217L363.169 366.567L357.556 367.955L351.869 365.467L344.619 366.767L341.706 364.455L339.869 364.93L340.519 366.792L338.906 369.43L336.656 367.317L333.694 369.592L332.706 367.092L329.356 369.255L328.369 366.692L322.631 372.742L319.444 368.717L317.331 369.08L316.831 370.842L312.419 371.267L311.931 369.442L310.319 369.83L311.269 368.567L312.069 366.167L308.894 365.055L308.556 360.655L305.894 358.442L302.094 358.48L301.819 356.167L296.431 353.592L295.494 351.467L297.319 346.592L296.556 344.117L291.494 339.417L290.519 334.842L285.756 330.792L285.094 325.442L281.256 322.88L278.669 322.992L280.256 326.705L275.444 326.58L271.969 328.805L268.169 327.292L266.006 328.717L264.331 324.167L265.444 323.567L264.944 319.555L263.144 320.205L261.944 318.005L258.481 318.955L259.606 316.48L258.656 314.68L257.631 315.755L256.219 315.28L256.494 313.93L253.381 314.38L252.019 310.967L253.206 302.017L258.656 294.38L257.131 293.03L260.694 285.317L260.931 283.242L259.269 282.33L261.331 277.93L261.269 277.28L269.131 279.955L270.131 279.317L268.131 276.167L269.106 274.33L272.531 276.205L273.294 274.23L280.144 272.155L281.331 270.53L280.131 270.892L279.606 268.63L281.731 266.017L285.619 264.855L285.144 263.605L289.094 259.842L288.669 254.567L290.181 253.705L291.294 255.517L291.506 252.142L293.244 251.53L291.669 247.98L292.894 244.605L290.556 244.03L290.369 241.442L292.931 241.255L293.044 239.542L291.394 239.18L292.831 238.842L293.344 236.555L296.706 236.13L290.581 231.83L292.269 230.33L290.081 226.655L291.019 224.467L288.381 223.642L289.144 221.867L296.619 217.942L299.831 212.667L297.756 209.842L299.344 206.167L291.694 199.255L291.519 194.717L294.019 193.33L294.681 191.155L300.519 190.38H301.594L304.381 187.792L307.081 188.717L307.406 185.355L312.644 187.817L318.344 187.567L320.419 186.005L319.881 181.817L324.981 178.867L324.344 174.805L327.106 173.492Z" fill="#85CAE8" stroke="#3CA7D5" stroke-width="1.25"/>
<path d="M500.106 76.6547L503.256 78.0672L501.769 79.4422L501.994 82.0047L500.906 80.9047L499.294 83.8547L500.394 86.0297L497.719 91.6047L502.844 96.3672L500.706 99.8047L502.144 103.58L500.944 105.717L508.406 105.155L513.544 108.142L517.281 113.705L522.694 113.505L525.869 116.855L524.956 120.267L526.719 118.692L529.206 119.842L522.281 125.805L520.856 123.605L517.156 124.117L516.106 121.905L514.506 121.78L513.344 125.755L513.256 126.23L511.731 129.08L514.431 132.48L514.644 135.542L512.656 136.88L513.906 138.817L511.456 139.68L509.956 144.242L511.581 145.517L511.281 147.08L506.119 150.017L508.244 152.242L505.506 154.155L508.881 163.342L506.856 167.067L509.106 165.955L510.544 166.905L510.431 169.305L508.369 170.042L510.706 170.83L509.506 173.555L505.456 175.23L505.231 175.455L504.119 179.142L505.419 181.167L502.994 184.617L509.194 189.067L508.631 198.98L511.656 197.655L512.381 200.505L514.869 200.542L519.681 205.792L525.706 207.255L532.994 213.992L529.069 216.48L531.581 217.405L530.794 221.142L533.519 219.205L535.869 219.855L539.206 225.605L540.381 224.217L542.569 226.08L541.931 228.117L544.319 228.717L546.519 231.53L543.969 232.98L543.456 238.492L541.244 240.267L544.806 240.942L546.131 243.48L548.969 244.28L549.531 250.53L552.619 248.742L554.581 252.58L554.556 254.567L552.806 254.08L551.319 256.805L551.631 258.255L548.144 257.692L547.156 260.73L544.531 260.667L543.756 263.88L545.456 266.367L544.519 271.142L539.644 272.105L538.119 269.392L535.944 272.042L529.969 271.93L527.994 277.292L527.106 278.367L524.594 276.955L521.744 279.467L522.144 275.98L517.694 273.68L517.956 271.517L514.794 274.117L511.481 272.442L511.856 270.367L510.206 270.592L510.169 269.192L507.044 271.067L506.544 265.217L504.294 264.817L508.269 261.667L506.269 257.142H505.581L503.644 252.93L501.894 253.192L501.431 254.842L499.931 253.88L501.681 251.442L500.656 249.88L497.494 249.742L498.769 247.717L497.931 246.38L493.106 244.992L486.806 244.592L484.594 246.342L485.556 249.317L473.094 249.842L471.969 252.655L469.469 252.255L468.519 249.017L466.881 249.38L467.269 251.38L465.444 249.98L464.794 250.33L462.481 252.58L459.881 251.055L459.081 252.642L456.994 251.305L451.306 252.33L452.269 248.43L451.294 246.742L450.544 248.505L449.069 248.18L448.419 246.567L450.119 245.705L447.544 243.455L445.931 237.742L443.256 236.605L443.706 234.017L441.944 233.367L442.381 234.767L439.494 236.017L437.581 232.142L434.906 232.555L437.106 229.367L436.031 228.83L436.981 226.017L434.819 224.83L435.331 223.542L430.994 218.405L429.056 217.642L427.069 219.017L426.344 216.555L424.706 209.542L427.531 208.705L425.906 205.78L429.769 204.705L428.931 202.455L431.481 200.942L430.844 199.78L433.856 198.855L431.819 197.58L432.544 196.53L428.231 197.405L429.119 189.355L425.294 187.767L427.831 185.267L425.756 183.83L430.106 183.417L430.006 180.417L432.231 175.705L434.431 175.505L434.606 173.555L436.131 173.28L435.456 171.917L440.006 167.667L438.606 165.38L435.206 165.867L435.294 164.03L437.956 162.692L436.019 159.342L437.131 156.905L441.431 157.555L443.681 156.242L443.719 154.48L441.944 154.817L441.119 152.442L440.256 153.217L438.781 151.967L440.044 150.23L438.331 143.98L445.219 140.58L449.031 141.492L449.256 138.68L452.794 136.567L454.656 138.905L458.656 140.267L458.731 134.055L460.319 133.48L458.906 128.592L460.881 127.18L459.344 125.555L460.806 123.455L457.981 119.392L458.894 118.13L462.731 118.505L463.319 114.905L466.369 113.23L469.731 108.58L467.456 106.742L469.906 99.6547L470.031 96.7922L468.056 96.0047L468.806 92.3797L472.844 91.5422L479.919 94.0922L487.781 90.1297L492.694 89.4172L492.031 83.7297L493.181 81.4047L499.519 75.4922L500.106 76.6547Z" fill="#85CAE8" stroke="#3CA7D5" stroke-width="1.25"/>
<path d="M554.581 252.58L557.094 248.605L558.506 249.317L556.831 251.642L557.956 251.817L560.719 250.23L562.644 246.592L567.594 245.367L567.719 245.455L568.294 249.455L571.169 251.717V252.117L580.769 249.905L583.156 251.367L585.381 255.705L591.869 251.042L594.094 254.292L603.919 260.617L605.481 263.655L609.319 264.542L614.331 268.242L614.819 272.167L612.719 277.505L616.906 278.217L619.869 283.442L619.319 285.105L611.556 285.792L612.531 288.892L609.331 290.48L606.156 296.605L613.281 295.067L614.969 295.88L615.319 298.055L612.969 298.755L612.256 301.042L609.481 301.617L610.119 305.017L604.206 310.417L605.119 310.955L604.081 312.155L597.019 317.242L597.869 319.605L592.781 324.005L586.319 325.417L582.944 328.917L584.619 331.88L582.894 337.68L584.006 340.492L566.269 355.442L568.669 357.805L564.306 364.005L563.894 367.505L553.769 378.842L546.281 379.13L545.681 375.505L542.194 374.392L542.006 372.855L536.606 378.555L533.219 378.867L533.306 375.03L531.319 375.042L530.656 372.605L529.594 375.405L527.394 370.93L528.206 370.03L524.169 367.717L524.969 365.23L525.456 363.967L530.294 362.93L530.494 361.017L527.294 359.717L527.231 356.517L529.619 355.055L529.181 352.892L531.544 350.842L529.144 347.28L529.006 344.005L527.344 343.905L528.931 340.842L525.619 337.442L532.806 335.542L529.531 333.43L529.356 331.617L525.731 331.992L523.906 328.042L522.356 328.867L521.856 325.117L525.169 322.48L522.944 321.43L523.381 319.73L528.631 317.217L531.444 312.48L531.419 312.092L533.969 301.53L535.594 300.417L533.181 299.405H533.006L534.369 297.53L533.769 293.542L533.569 293.417L531.419 293.567H531.094L531.431 289.142L527.706 288.067L529.844 287.092L528.781 286.792L529.381 285.43L531.944 285.53L534.469 281.105L531.569 275.38L529.156 278.092L527.994 277.292L529.969 271.93L535.944 272.042L538.119 269.392L539.644 272.105L544.519 271.142L545.456 266.367L543.756 263.88L544.531 260.667L547.156 260.73L548.144 257.692L551.631 258.255L551.319 256.805L552.806 254.08L554.556 254.567L554.581 252.58Z" fill="#85CAE8" stroke="#3CA7D5" stroke-width="1.25"/>
<path d="M337.594 150.504L339.469 151.104L338.819 153.429L339.294 153.417L340.231 154.954L342.769 154.179L346.906 155.967L353.069 154.929L357.169 152.204L361.819 155.904L364.306 154.654L365.056 156.879L367.781 156.204L369.244 154.092L371.519 157.129L372.419 156.204L375.794 157.242L375.494 158.267L376.831 157.679L379.106 159.504L378.406 160.404L380.581 160.917L381.631 158.967L383.244 162.492L385.806 160.229L391.056 163.979L394.906 161.142L397.169 163.229L403.244 161.554L404.219 163.167L405.331 161.554L408.319 162.054L408.494 159.542L412.044 160.404L414.744 164.829L413.531 167.817L417.881 170.954L418.569 173.604L420.656 172.829L421.906 176.029L423.906 174.429L424.706 178.867L427.956 179.779L428.756 181.567L430.006 180.417L430.106 183.417L425.756 183.829L427.831 185.267L425.294 187.767L429.119 189.354L428.231 197.404L432.544 196.529L431.819 197.579L433.856 198.854L430.844 199.779L431.481 200.942L428.931 202.454L429.769 204.704L425.906 205.779L427.531 208.704L424.706 209.542L426.344 216.554L424.344 215.792L423.769 217.942L422.269 218.142L412.144 217.917L410.219 219.767L407.306 218.954L405.644 223.179L407.306 227.479L405.081 230.804L401.606 232.629L401.594 234.204L397.919 234.742L395.494 236.779L394.431 233.767L392.556 234.954L391.181 233.917L392.106 235.579L389.581 237.279L381.994 235.917L375.994 237.242L378.044 234.079L379.831 233.892L379.806 229.342L374.956 226.717L373.944 222.367L371.594 222.979L369.969 221.017L368.731 222.117L368.456 222.629L365.681 223.704L365.706 221.104L363.494 220.154L362.369 222.704L360.831 222.342L361.444 223.704L351.531 224.517L350.769 222.817L352.344 218.692L351.794 215.729L349.219 215.379L349.344 211.404L346.206 212.704L342.669 210.654L341.331 207.017L341.919 203.867L337.869 202.029L338.181 199.104L335.644 199.129L332.331 195.142L332.856 193.279L331.031 192.179L333.619 188.729L331.269 187.604L332.144 181.442L329.419 179.017L330.319 177.429L327.106 173.492L326.656 171.379L328.031 170.479L325.506 170.692L325.931 167.679L324.356 164.567L326.444 164.792L327.544 162.042L328.106 163.317H328.381L333.381 162.042L337.594 150.504Z" fill="#85CAE8" stroke="#3CA7D5" stroke-width="1.25"/>
<path d="M403.919 498.317L406.894 493.142L407.256 486.992L408.619 484.254L409.994 484.542L410.231 482.204H410.531L411.681 479.442L414.806 482.442L417.106 480.604L417.406 477.117L419.681 477.754L424.106 474.229L426.394 476.667L426.481 479.854L429.656 486.329L435.394 485.129L435.644 481.504L437.531 481.104L439.781 482.904L439.444 484.929L443.431 484.254L444.344 486.979L446.856 489.617L448.594 489.067L448.219 490.842L449.556 491.104L451.719 501.992L454.294 503.704L456.144 510.854L460.331 515.692L458.856 516.704L459.256 521.929L463.506 520.654L470.119 525.829L473.706 520.529L477.119 519.942L477.306 523.992L479.506 524.517L480.294 520.529L482.994 520.142L490.469 525.429L491.694 529.404L493.469 529.492L494.206 531.429L494.156 539.054L497.581 540.192L500.594 545.704L499.006 545.779L499.019 547.579L490.069 554.504L491.406 556.067L488.569 564.604L489.356 567.467L484.794 565.917L481.956 566.629L478.869 571.867L481.244 572.692L480.706 574.342L474.056 578.192L473.019 576.804L473.531 578.742L469.281 580.804L468.731 583.617L463.781 581.779L462.956 580.117L463.994 578.504L462.331 577.017L455.331 577.542L442.481 587.892L438.294 589.104L431.169 597.354L431.419 596.117L431.081 597.267L422.144 595.804L422.606 597.304L414.269 604.079L409.169 612.317L407.206 618.779L408.081 622.067L406.431 637.154L407.381 648.655L412.244 650.342L411.669 652.704L413.956 656.029L409.369 656.679L407.006 653.342L403.181 653.879L402.144 652.704L400.619 654.517L396.556 654.342L393.381 657.629L391.056 656.78L388.006 658.142L386.819 659.43L387.856 662.642L382.919 661.404L380.506 663.192L378.006 662.679L375.456 658.954L366.319 655.829L363.444 657.392L361.056 656.842L357.419 661.129L353.844 662.117L351.094 659.729L349.569 654.779L346.794 655.042L343.794 652.379L338.894 651.817L339.381 647.555L341.881 646.254L346.169 645.817L347.806 643.355L351.594 643.229L352.856 640.117L361.469 639.979L362.144 638.717L357.381 633.767L353.194 635.029L348.481 633.304L349.131 632.067L345.656 628.704L346.494 626.654L352.269 625.379L351.944 621.204L349.556 620.304L350.781 618.754L353.319 618.867L351.394 615.629L352.219 613.892L349.944 612.617L351.069 611.379L350.494 608.254L348.569 606.804L347.256 608.067L345.244 604.929L345.231 605.917L341.744 605.517L337.819 602.754L338.644 600.354L336.806 596.904L339.219 594.004L338.519 592.054L343.256 592.079L342.631 588.429L345.256 584.867L347.456 588.179L348.656 586.404L348.956 586.429L352.331 587.267L354.856 585.342L356.681 588.179L361.756 586.704L364.056 589.029L364.406 585.629L366.306 583.617L373.481 586.717L375.319 585.329L384.431 585.667L387.569 582.879L387.894 579.604L384.844 575.992L386.406 569.304L390.269 570.392L392.094 572.579L399.931 569.679L400.769 567.179L404.019 565.817L407.956 566.967L408.106 556.804L415.881 558.304L417.744 557.167L417.019 554.792L418.544 552.517L422.644 552.554L423.394 548.592L427.706 545.029L428.056 543.129L424.969 540.804L423.031 541.392L421.906 539.367L420.056 540.092L418.419 538.292L421.506 537.204L422.181 533.592L424.144 532.779L423.619 530.529L415.431 531.267L416.781 528.342L413.181 527.304L412.719 525.104L411.094 526.029L412.819 522.729L411.019 518.742L412.319 513.317L408.269 508.642L409.256 504.554L403.919 498.317ZM350.256 654.292L353.031 655.029L351.781 652.242L350.256 654.292Z" fill="#85CAE8" stroke="#3CA7D5" stroke-width="1.25"/>
<path d="M310.319 369.83L311.931 369.442L312.419 371.267L316.831 370.842L317.331 369.08L319.444 368.717L322.631 372.742L328.369 366.692L329.356 369.255L332.706 367.092L333.694 369.592L336.656 367.317L338.906 369.43L340.519 366.792L339.869 364.93L341.706 364.455L344.619 366.767L351.869 365.467L357.556 367.955L363.169 366.567L367.519 367.217L367.881 370.092L370.294 370.78L368.656 372.955L371.906 375.417L373.094 373.83L374.844 377.455L375.369 376.48L378.006 377.68L382.344 387.005L381.531 392.167L384.206 395.98L384.719 400.667L382.269 401.805L381.869 405.005L378.544 408.705L376.894 408.48L376.669 408.53L373.131 411.567L380.156 420.105L380.056 425.142L378.206 425.242L376.919 428.555L379.844 431.642L378.269 441.617L380.381 443.617L377.906 445.242L371.056 442.155L371.631 447.692L363.031 456.167L363.381 459.13L365.019 460.292L362.281 462.38L361.944 466.405L358.081 468.03L360.381 472.317L358.656 473.755L358.219 473.642L356.156 474.18L352.244 474.305L350.281 475.905L348.219 474.055L342.719 478.067L340.044 477.005L334.644 470.33L329.419 470.242L329.019 468.967L324.344 470.942L320.706 464.68L322.469 463.23L317.094 462.63L314.331 460.242L314.594 460.205L316.106 458.555L312.919 457.405L315.519 453.755L312.894 452.405L313.381 448.767L314.856 448.692L317.931 444.58L314.406 442.867L316.319 440.58L307.356 437.455L309.719 433.767L307.094 432.142L305.519 433.38L302.019 427.492L295.744 428.205L294.269 426.605L291.331 430.142L288.181 426.98L289.394 423.305L286.594 421.217L283.081 421.755L281.881 420.142L286.269 416.28L286.106 413.167L289.781 414.105L292.056 407.33L291.281 403.705L294.919 404.367L298.294 400.83L297.144 397.817L295.044 396.155L293.694 397.192L291.419 394.805L292.481 391.392L291.206 389.38L293.131 388.33L290.331 382.73L293.344 381.33L296.019 377.042L301.369 377.667L303.594 371.492L307.819 372.617L309.244 369.467L310.319 369.83Z" fill="#85CAE8" stroke="#3CA7D5" stroke-width="1.25"/>
<path d="M530.381 121.105L532.294 123.742L533.194 129.305L537.544 126.742L540.394 128.555L541.994 125.142L547.369 126.042L548.781 124.105L552.106 125.742L553.744 129.242L558.806 129.667L559.606 133.055L562.719 133.33L564.344 131.78L565.744 132.855L567.144 129.705L572.944 128.042L579.469 132.342L582.794 131.03L589.431 135.405L588.556 136.917L591.731 139.83L589.981 141.305L595.319 146.63L594.844 148.305L596.331 149.03L596.669 151.705L598.131 151.517L597.506 153.967L598.906 155.792L603.931 156.667L605.306 154.48L604.069 151.955L609.269 151.155L614.206 153.705L615.106 159.78L617.581 156.492L620.581 159.292L625.194 158.542L627.681 159.73L629.356 157.467L631.244 157.492L631.369 155.267L635.506 154.305L635.044 155.805L638.069 155.467L639.844 161.105L645.206 163.017L645.494 164.542L642.469 172.155L640.306 174.092L635.906 171.255L629.356 173.23L627.531 172.267L627.706 170.83L618.981 168.305L617.519 162.667L615.919 163.617L614.094 172.23L611.919 171.83L611.306 174.042L609.506 174.03L610.069 177.167L614.944 178.655L615.044 179.88L617.356 179.605L615.069 181.055L615.119 183.267L617.044 183.617L616.481 185.73L618.981 184.355L620.381 180.955L625.919 182.767L625.356 183.892L628.769 187.08L625.019 192.98L626.219 195.305L628.244 195.492L623.769 203.917L621.006 205.855L615.806 206.105L619.381 208.18L617.081 207.73L618.506 210.005L616.831 215.942L618.044 217.555L616.369 219.517L618.494 221.005L621.769 220.505L622.769 222.792L615.519 235.617L616.419 238.392L612.444 245.217L609.506 246.905L607.844 253.117L608.744 253.855L607.044 255.317L608.244 258.48L603.919 260.617L594.094 254.292L591.869 251.042L585.381 255.705L583.156 251.367L580.769 249.905L571.169 252.117V251.717L568.294 249.455L567.719 245.455L567.594 245.367L562.644 246.592L560.719 250.23L557.956 251.817L556.831 251.642L558.506 249.317L557.094 248.605L554.581 252.58L552.619 248.742L549.531 250.53L548.969 244.28L546.131 243.48L544.806 240.942L541.244 240.267L543.456 238.492L543.969 232.98L546.519 231.53L544.319 228.717L541.931 228.117L542.569 226.08L540.381 224.217L539.206 225.605L535.869 219.855L533.519 219.205L530.794 221.142L531.581 217.405L529.069 216.48L532.994 213.992L525.706 207.255L519.681 205.792L514.869 200.542L512.381 200.505L511.656 197.655L508.631 198.98L509.194 189.067L502.994 184.617L505.419 181.167L504.119 179.142L505.231 175.455L505.456 175.23L509.506 173.555L510.706 170.83L508.369 170.042L510.431 169.305L510.544 166.905L509.106 165.955L506.856 167.067L508.881 163.342L505.506 154.155L508.244 152.242L506.119 150.017L511.281 147.08L511.581 145.517L509.956 144.242L511.456 139.68L513.906 138.817L512.656 136.88L514.644 135.542L514.431 132.48L511.731 129.08L513.256 126.23L513.344 125.755L514.506 121.78L516.106 121.905L517.156 124.117L520.856 123.605L522.281 125.805L529.206 119.842L530.381 121.105Z" fill="#85CAE8" stroke="#3CA7D5" stroke-width="1.25"/>
<path d="M243.444 594.229L243.744 594.429L245.031 597.579L242.869 599.129L241.894 596.942L242.906 594.529L243.269 594.254L243.444 594.229ZM244.969 589.954L245.269 594.417L244.406 594.204L243.156 593.004L244.669 592.392L244.469 589.704L244.969 589.954ZM324.344 470.942L329.019 468.967L329.419 470.242L334.644 470.329L340.044 477.017L342.719 478.079L348.219 474.067L350.281 475.917L352.256 474.317L356.156 474.192L358.306 478.229L357.694 481.654L361.869 487.829L359.694 494.529L361.219 494.592L361.831 498.742L363.569 500.254L364.231 497.904L368.294 496.579L369.944 496.429L371.269 498.604L378.094 497.867L378.906 495.092L382.056 492.829L381.531 490.404L384.156 487.579L384.369 483.667L391.244 476.692L393.181 478.829L393.106 482.929L397.606 481.579L399.094 487.779L400.769 487.454L401.631 488.879L400.306 489.804L401.619 495.729L403.944 498.304L409.331 504.492L408.344 508.579L412.394 513.254L411.094 518.679L412.894 522.667L411.169 525.967L412.794 525.042L413.256 527.242L416.856 528.279L415.506 531.204L423.694 530.467L424.219 532.717L422.256 533.529L421.581 537.142L418.494 538.229L420.131 540.029L421.981 539.304L423.106 541.329L425.044 540.742L428.131 543.067L427.781 544.967L423.469 548.529L422.719 552.492L418.619 552.454L417.094 554.729L417.819 557.104L415.956 558.242L408.181 556.742L408.031 566.904L404.094 565.754L400.844 567.117L400.006 569.617L392.169 572.517L390.344 570.329L386.481 569.242L384.919 575.929L387.969 579.542L387.644 582.817L384.506 585.604L375.394 585.267L373.556 586.654L366.381 583.554L364.481 585.567L364.131 588.967L361.831 586.642L356.756 588.117L354.931 585.279L352.406 587.204L349.031 586.367L348.731 586.342L347.531 588.117L345.331 584.804L342.706 588.367L343.331 592.017L338.594 591.992L339.294 593.942L336.881 596.842L338.719 600.292L337.894 602.692L341.819 605.454L345.306 605.854L345.319 604.867L347.331 608.004L348.644 606.742L350.569 608.192L351.144 611.317L350.019 612.554L352.294 613.829L351.469 615.567L353.394 618.804L350.856 618.692L349.631 620.242L352.019 621.142L352.344 625.317L346.569 626.592L345.731 628.642L349.206 632.004L348.556 633.242L353.269 634.967L357.456 633.704L362.219 638.654L361.544 639.917L352.931 640.054L351.669 643.167L347.881 643.292L346.244 645.754L341.956 646.192L342.256 645.229L338.794 645.067L339.306 643.192L332.219 642.504L329.694 640.454L326.031 640.742L325.919 643.367L323.831 644.167L319.644 635.992L313.131 635.392L309.956 636.742L305.281 631.129L300.331 631.254L299.106 629.904L297.331 631.067L286.019 625.954L283.456 627.529L284.031 629.929L282.719 631.467L283.844 632.004L282.569 633.442L284.431 635.442L284.306 637.929L280.231 636.904L271.156 637.954L267.919 635.617L264.506 639.179L262.706 636.204L258.381 634.717L249.131 638.379L246.294 637.867L245.681 636.092L243.419 635.504L240.931 630.429L239.506 631.204L233.019 626.804L232.281 622.017L234.681 620.842L234.331 615.804L235.744 613.554L239.931 612.517L239.256 608.104L241.694 607.067L243.181 603.442L245.756 603.654L245.481 600.392L246.719 600.692L248.381 597.004L246.881 594.804L250.819 591.617L249.094 589.767L249.244 584.567L245.794 587.017L245.869 583.304L248.331 582.667L245.844 577.254L244.431 577.592L244.281 574.842L240.094 573.817L236.906 574.792L236.456 572.429L234.781 572.242L234.669 570.479L236.731 569.642L236.331 565.892L239.194 563.742L237.544 558.667L239.256 558.542L238.469 555.117L239.619 554.354L236.856 552.254L239.969 549.267L244.306 550.042L247.394 546.029L249.631 548.204L248.194 549.992L252.344 552.354L253.231 550.879L252.169 547.667L255.869 544.767L257.406 546.842L259.231 543.804L261.269 543.304L264.881 545.554L265.619 544.204L272.256 542.792L273.231 540.829L278.156 540.892L280.081 539.079L283.756 543.104L287.719 540.417L288.631 537.129L290.781 536.867L290.319 534.529L294.106 535.754L295.769 534.942L295.319 532.267L293.656 531.617L296.419 531.142L298.706 525.117L294.481 522.542L295.881 517.417L297.131 517.204L298.219 520.017L298.769 518.829L304.456 518.542L304.156 514.129L302.194 512.829L302.169 508.392L300.331 505.692L302.081 506.204L306.694 503.567L306.194 502.104L309.256 498.804L308.944 496.554L312.856 495.554L317.631 491.442L316.719 487.379L320.231 486.279L320.019 483.904L324.081 481.304L322.631 478.979L324.131 478.542L322.669 472.929L322.456 472.067L324.344 470.942Z" fill="#85CAE8" stroke="#3CA7D5" stroke-width="1.25"/>
<path d="M382.119 3.21748L382.781 7.54248L385.794 12.08L383.631 14.355L384.119 20.105L385.969 23.155L390.519 23.33L394.219 30.38L396.931 30.505L400.031 33.0175L402.419 28.13L412.719 25.0175L414.794 30.3175L418.394 32.2425L417.281 35.805L419.994 46.6925L424.381 49.3925L428.081 48.1425L429.506 45.9675L431.794 46.755L430.844 49.705L436.444 48.9925L439.144 52.1925L439.056 59.23L441.644 64.455L443.694 60.7175L449.019 60.6425L451.706 62.68L458.069 60.08L460.756 63.98L462.869 64.58L463.944 68.2675L465.481 68.2425L465.231 65.7425L467.631 67.13L468.294 68.6925L464.644 71.9175L464.869 75.9425L463.494 78.33L467.219 78.38L468.781 83.5175L465.144 85.2175L464.194 90.73L461.294 91.58L455.756 89.63L455.844 85.5425L450.931 88.3425L450.131 86.0675L441.956 83.4675L439.319 84.755L439.094 86.6925L436.731 87.055L433.094 84.6675L430.344 87.6175L423.744 86.1175L421.969 87.7925L419.294 87.9175L418.306 86.455L413.831 88.1425L409.769 84.8175L405.619 84.305L403.369 85.7175L400.731 85.1175L397.806 87.4175L397.481 82.83L391.744 85.5425L393.469 80.105L390.819 78.93L389.656 78.8425L389.469 82.5425L382.831 79.955L382.931 77.7925L381.619 77.58L380.619 79.905L379.656 77.7175L377.919 77.93L374.681 82.0425L372.469 80.255L373.081 76.705L378.631 73.405L376.369 70.505L374.031 70.1675L371.556 72.4425L370.194 69.8175L369.919 71.9175L366.956 70.6425L360.694 73.755L359.656 72.1925L357.356 72.9175L356.894 68.755L350.131 65.8675L349.381 64.93L351.119 63.1425L350.181 62.3675L348.169 63.955L342.794 59.9675L335.544 62.4675L334.331 60.6675L329.781 56.7425L331.456 45.5425L333.969 47.58L330.919 43.0175L330.206 30.23L330.419 29.03L330.894 30.9925L331.831 29.705L332.856 23.8675L331.169 18.3425L335.331 17.1175L339.669 12.33L346.206 10.205L344.681 9.91748L357.856 6.51748L358.519 7.36748L361.269 4.54248L360.694 6.01748L362.294 7.54248L363.156 4.54248L363.581 5.50498L371.281 2.86748L372.719 3.90498L381.219 0.41748L382.119 3.21748Z" fill="#85CAE8" stroke="#3CA7D5" stroke-width="1.25"/>
<path d="M148.831 111.055L151.306 112.717L153.131 111.767L154.556 113.955L165.269 116.492L165.019 118.342L165.669 116.58L171.956 115.692L172.681 113.392L183.481 113.455L185.356 120.592L184.006 120.117L183.094 123.442L183.119 122.33L181.781 122.58L181.181 125.342L188.594 136.542L186.781 142.317L189.219 140.092L191.244 141.58L193.381 137.93L199.056 137.33L209.956 141.18L228.706 142.442L234.669 145.655L236.531 144.992L237.606 146.605L249.094 143.105L255.756 137.03L260.769 134.917L254.919 134.667L263.969 134.53L266.081 141.905L264.556 143.817L266.006 145.355L265.281 146.392L268.044 145.305L269.131 146.23V147.917L265.856 149.18L269.694 152.167L269.206 156.642L271.694 157.655L270.006 160.38L270.994 162.817L268.281 164.605L272.456 167.53L269.144 175.705L272.731 178.33L277.806 178.68L279.356 177.217L279.819 178.867L281.169 178.405L280.894 180.217L282.256 180.242L280.856 181.992L288.506 187.092L289.331 189.417L286.944 191.83L289.106 192.742L289.206 194.767L291.531 194.73L291.719 199.267L299.369 206.18L297.781 209.855L299.856 212.667L296.656 217.955L289.169 221.88L288.406 223.655L291.044 224.467L290.106 226.655L292.294 230.33L290.606 231.83L287.506 232.292L283.131 226.417L282.369 228.805L277.006 227.58L274.619 222.805L274.094 223.705L269.569 221.892L269.056 213.867L264.831 209.492L256.719 211.305L257.369 212.555L252.919 215.117L252.231 217.53L249.169 215.992L246.569 217.767L246.581 211.792L241.594 211.342L240.194 207.155L241.656 205.792L238.444 203.005L236.269 202.955L236.669 205.142L235.106 207.405L232.519 206.23L230.856 209.217L228.594 207.205L222.719 207.28L220.581 210.08L215.381 212.342L214.756 209.13L213.444 210.455L211.294 210.055L212.169 211.892L209.769 212.98L208.794 210.692L206.981 211.48L205.344 208.042L202.044 208.255L199.619 206.642L197.106 208.83L193.706 207.355L184.169 204.567L178.969 210.43L175.469 211.055L171.981 208.855L167.656 197.492L170.744 198.617L170.806 197.242L171.869 198.405L175.231 196.83L178.969 197.655L175.956 195.555L177.269 194.267L174.094 195.867L167.781 188.667L167.556 182.792L165.481 181.742L169.294 174.13L168.156 173.392L168.419 166.68L171.169 167.155L168.269 165.755L167.344 168.755L166.219 165.742L165.444 151.53L167.869 151.292L165.431 150.267L164.794 152.23L160.619 142.767L155.294 139.267L153.306 128.817L151.244 126.405L153.694 123.467L153.281 118.655L151.894 116.43L148.156 115.155L148.831 111.055Z" fill="#85CAE8" stroke="#3CA7D5" stroke-width="1.25"/>
<path d="M320.694 83.9298L324.394 83.4673L324.581 85.9298L338.056 98.2173L339.206 103.98L341.894 108.192L339.994 108.117L336.869 113.605L337.756 114.73L340.106 113.605L337.294 117.655L338.531 119.33L337.469 122.592H337.244L339.956 126.13L338.344 128.867L339.769 130.017L340.531 128.242L342.131 128.867L341.181 131.567L340.681 131.892L338.169 136.542L339.506 136.68L338.556 137.655L340.606 139.83L341.194 145.755L342.831 147.117L342.056 149.38L340.444 147.292L337.919 147.905L337.631 150.517L333.406 162.055L328.406 163.33L328.131 163.342L327.569 162.067L326.469 164.83L324.381 164.605L325.956 167.717L325.531 170.717L328.056 170.517L326.669 171.417L327.131 173.53L324.369 174.842L325.006 178.917L319.906 181.855L320.444 186.042L318.369 187.617L312.669 187.867L307.419 185.405L307.106 188.767L304.406 187.842L301.619 190.43H300.544L294.706 191.192L294.044 193.367L291.544 194.767L289.219 194.805L289.119 192.78L286.956 191.867L289.344 189.455L288.519 187.13L280.869 182.03L282.269 180.28L280.906 180.255L281.181 178.442L279.831 178.905L279.369 177.255L277.819 178.717L272.744 178.367L269.156 175.742L272.469 167.567L268.294 164.642L271.006 162.855L270.019 160.417L271.706 157.692L269.219 156.68L269.706 152.205L265.869 149.217L269.144 147.955V146.267L268.056 145.342L265.294 146.43L266.019 145.392L264.569 143.855L266.094 141.942L263.981 134.567L264.494 133.155L263.269 134.105L255.106 131.592L252.631 128.417L257.119 117.592L255.606 115.58L257.244 116.33L259.931 112.142L266.669 109.442L279.631 100.642L289.281 99.1673L298.994 95.0548L302.056 95.9423L305.444 94.4173L305.969 95.8423L305.631 94.2673L311.194 91.6173L320.694 83.9298Z" fill="#85CAE8" stroke="#3CA7D5" stroke-width="1.25"/>
<path d="M132.081 321.292L134.131 322.73L133.394 325.292L137.281 327.255L137.656 331.392L134.619 326.58L131.856 326.467L129.844 324.055L129.494 321.517L132.081 321.292ZM193.656 207.367L197.056 208.842L199.569 206.655L201.994 208.267L205.294 208.055L206.931 211.492L208.744 210.705L209.719 212.992L212.119 211.905L211.244 210.067L213.394 210.467L214.706 209.142L215.331 212.355L220.531 210.092L222.669 207.292L228.544 207.217L230.806 209.23L232.469 206.242L235.056 207.417L236.619 205.155L236.219 202.967L238.394 203.017L241.606 205.805L240.144 207.167L241.544 211.355L246.531 211.805L246.519 217.78L249.119 216.005L252.181 217.542L252.869 215.13L257.319 212.567L256.669 211.317L264.781 209.505L269.006 213.88L269.519 221.905L274.044 223.717L274.569 222.817L276.956 227.592L282.319 228.817L283.081 226.43L287.456 232.305L290.556 231.842L296.681 236.142L293.319 236.567L292.819 238.855L291.369 239.192L293.019 239.555L292.906 241.28L290.344 241.467L290.531 244.055L292.856 244.63L291.631 248.005L293.206 251.555L291.469 252.167L291.256 255.542L290.144 253.73L288.644 254.592L289.056 259.88L285.106 263.642L285.594 264.892L281.706 266.055L279.581 268.667L280.106 270.93L281.306 270.567L280.131 272.192L273.269 274.255L272.506 276.23L269.081 274.355L268.106 276.192L270.106 279.342L269.094 279.992L261.244 277.317L261.306 277.967L259.244 282.367L260.906 283.267L260.669 285.355L257.106 293.055L258.631 294.417L253.181 302.055L251.994 311.005L250.144 310.167L248.769 311.305L247.256 316.905L244.656 315.83L242.419 319.367L239.831 318.142L241.731 315.617L239.581 315.242L238.519 316.317L235.344 315.442L228.556 316.542L227.981 318.405L224.156 319.417L225.281 317.28L223.456 317.13L220.256 318.605L220.919 321.005L218.056 323.705L214.356 323.23L212.069 324.692L208.294 323.067L204.919 325.767L202.656 325.417L204.344 326.367L203.581 327.592L205.156 327.642L204.556 328.467L207.244 329.48L206.044 332.217L208.931 335.617H209.144L211.206 337.005H211.569L212.931 337.892L211.894 338.855L211.944 339.167L211.819 341.98L215.119 346.142L213.906 347.192L216.119 348.917L214.994 350.955L217.219 352.055L216.544 355.53L217.756 358.767L215.494 359.667L217.531 364.592L215.831 368.905L216.919 369.38L217.681 367.705L221.131 369.88L215.519 374.992L212.906 374.355L211.656 376.105L206.181 373.455L205.956 373.13L204.981 374.98L203.081 374.28L200.756 375.517L199.219 374.592L200.856 370.955L194.431 372.542L193.331 374.98L191.206 375.03L186.756 375.155L186.544 378.53L180.856 373.73L181.906 376.942L179.419 373.117L172.969 373.105L170.544 368.492L163.569 367.28L155.031 361.667L152.781 352.917L148.056 346.317L137.981 336.93L137.469 331.83L139.619 331.642L139.156 330.355L143.631 325.817L143.881 322.755L146.506 321.242L140.231 314.705L132.581 313.342L136.781 310.63L136.519 303.342L134.431 302.892L129.881 305.742L125.931 302.28L123.019 303.805L117.144 301.38L119.019 299.98L119.169 297.717L116.381 294.967L121.606 291.205L121.631 289.342L123.419 287.13L124.544 288.717L128.919 288.355L129.894 284.13L132.681 285.792L135.794 284.405L136.906 286.155L137.231 283.717L140.306 282.855L141.156 273.88L146.794 270.505L147.744 272.23L152.669 269.367L163.056 269.292L165.019 265.142L172.756 262.105L172.456 259.617L177.156 260.167L178.444 262.405L184.494 264.142L189.244 249.617L196.431 246.655L193.419 231.33L193.206 231.13L192.044 226.242L194.944 221.367L193.081 214.68L193.656 207.367Z" fill="#85CAE8" stroke="#3CA7D5" stroke-width="1.25"/>
<path d="M333.644 60.0801L334.381 60.6676L335.594 62.4676L342.844 59.9676L348.219 63.9551L350.231 62.3676L351.169 63.1426L349.431 64.9301L350.181 65.8676L356.944 68.7551L357.406 72.9176L359.706 72.1926L360.744 73.7551L367.006 70.6426L369.969 71.9176L370.244 69.8176L371.606 72.4426L374.081 70.1676L376.419 70.5051L378.681 73.4051L373.131 76.7051L372.519 80.2551L374.731 82.0426L377.969 77.9301L379.706 77.7176L380.669 79.9051L381.669 77.5801L382.981 77.7926L382.881 79.9551L389.519 82.5426L389.706 78.8426L390.869 78.9301L393.519 80.1051L391.794 85.5426L397.531 82.8301L397.856 87.4176L400.781 85.1176L403.419 85.7176L405.669 84.3051L409.819 84.8176L413.881 88.1426L418.356 86.4551L419.344 87.9176L422.019 87.7926L423.794 86.1176L430.394 87.6176L433.144 84.6676L436.781 87.0551L439.144 86.6926L439.369 84.7551L442.006 83.4676L450.181 86.0676L450.981 88.3426L455.894 85.5426L455.806 89.6301L461.344 91.5801L464.244 90.7301L468.869 92.3801L468.119 95.9926L470.094 96.7926L469.969 99.6551L467.519 106.743L469.794 108.58L466.431 113.218L463.369 114.893L462.794 118.493L458.944 118.118L458.031 119.38L460.856 123.443L459.394 125.543L460.919 127.168L458.956 128.58L460.369 133.468L458.781 134.043L458.706 140.255L454.694 138.893L452.844 136.568L449.306 138.68L449.081 141.493L445.269 140.58L438.394 143.98L440.094 150.23L438.844 151.968L440.306 153.218L441.169 152.43L442.006 154.818L443.781 154.48L443.744 156.243L441.481 157.555L437.181 156.918L436.069 159.355L438.006 162.705L435.344 164.043L435.256 165.88L438.656 165.393L440.069 167.668L435.519 171.93L436.194 173.28L434.669 173.568L434.494 175.518L432.294 175.718L430.081 180.418L428.831 181.568L428.019 179.78L424.769 178.868L423.969 174.43L421.956 176.018L420.706 172.818L418.619 173.593L417.931 170.943L413.569 167.805L414.781 164.818L412.081 160.393L408.531 159.53L408.356 162.043L405.369 161.543L404.256 163.168L403.281 161.543L397.219 163.23L394.956 161.143L391.094 163.968L385.856 160.218L383.294 162.48L381.681 158.955L380.631 160.905L378.456 160.393L379.156 159.493L376.894 157.668L375.544 158.255L375.856 157.23L372.481 156.193L371.581 157.105L369.306 154.08L367.844 156.193L365.119 156.868L364.369 154.643L361.881 155.893L357.231 152.193L353.131 154.93L346.969 155.955L342.844 154.18L340.306 154.955L339.369 153.418L338.894 153.43L339.544 151.105L337.669 150.505L337.956 147.893L340.481 147.28L342.094 149.368L342.869 147.105L341.231 145.743L340.644 139.818L338.594 137.643L339.544 136.668L338.206 136.53L340.719 131.88L341.219 131.555L342.169 128.855L340.569 128.23L339.806 130.005L338.381 128.855L339.994 126.118L337.281 122.58H337.506L338.569 119.318L337.331 117.643L340.144 113.593L337.794 114.718L336.906 113.593L340.031 108.105L341.931 108.18L339.244 103.968L338.094 98.2051L324.619 85.9176L324.431 83.4551L320.731 83.9176L324.581 80.3551L328.244 72.4051L330.631 71.6176L331.631 74.0176L335.331 75.0051L336.844 73.9051L329.094 66.9551L329.944 59.8926L333.644 60.0801Z" fill="#85CAE8" stroke="#3CA7D5" stroke-width="1.25"/>
<path d="M176.156 395.042L180.931 399.054L184.956 399.817L185.044 403.917L187.631 409.054L185.319 413.53L183.344 407.492L177.231 402.067L176.156 395.042ZM170.794 379.392L172.694 381.142L170.269 381.492L171.269 383.379L175.844 381.429L174.469 382.667L175.206 383.592L178.319 383.029L184.256 386.479L181.256 387.967L173.344 383.542L169.619 383.554L168.156 380.442L170.794 379.392ZM191.256 374.967L193.381 374.917L194.481 372.479L200.906 370.892L199.269 374.529L200.806 375.454L203.131 374.217L205.031 374.917L206.006 373.067L206.231 373.392L211.706 376.042L212.956 374.292L215.569 374.93L221.181 369.817L217.731 367.642L216.969 369.317L215.881 368.842L217.581 364.529L215.544 359.604L217.806 358.704L216.594 355.467L217.269 351.992L215.044 350.892L216.169 348.854L213.956 347.129L215.169 346.079L211.869 341.917L211.994 339.105L211.944 338.792L212.981 337.829L211.619 336.942H211.256L209.194 335.555H208.981L206.094 332.155L207.294 329.417L204.606 328.405L205.206 327.58L203.631 327.529L204.394 326.304L202.706 325.355L204.969 325.705L208.344 323.005L212.119 324.629L214.406 323.167L218.106 323.642L220.969 320.942L220.306 318.542L223.506 317.067L225.331 317.217L224.206 319.355L228.031 318.342L228.606 316.479L235.394 315.379L238.569 316.255L239.631 315.18L241.781 315.554L239.881 318.079L242.469 319.304L244.706 315.767L247.306 316.842L248.819 311.242L250.194 310.104L252.044 310.942L253.406 314.355L256.519 313.905L256.244 315.255L257.656 315.729L258.681 314.654L259.631 316.454L258.506 318.93L261.969 317.992L263.169 320.192L264.969 319.542L265.456 323.555L264.356 324.167L266.031 328.704L268.194 327.28L271.994 328.792L275.481 326.567L280.281 326.692L278.706 322.98L281.294 322.879L285.131 325.442L285.794 330.78L290.556 334.829L291.531 339.404L296.594 344.105L297.344 346.579L295.519 351.455L296.456 353.579L301.844 356.142L302.131 358.454L305.919 358.429L308.594 360.63L308.931 365.029L312.106 366.154L311.306 368.542L310.356 369.805L309.281 369.442L307.856 372.592L303.644 371.479L301.419 377.654L296.069 377.029L293.394 381.317L290.381 382.717L293.181 388.317L291.256 389.367L292.544 391.38L291.481 394.792L293.756 397.179L295.106 396.142L297.206 397.804L298.344 400.817L294.969 404.354L291.331 403.68L292.106 407.304L289.831 414.079L286.156 413.142L286.306 416.267L281.919 420.13L278.556 425.792L275.731 425.83L275.394 431.829L272.519 433.88L271.619 436.667L268.969 436.679L266.369 439.904L264.906 438.629L265.669 440.292L263.544 441.004L262.056 445.267L263.031 450.592L258.319 453.267L256.219 457.292L252.119 455.755L249.644 457.554L248.231 460.329L249.431 461.204L247.306 462.142L246.931 465.179L244.656 463.492L241.769 465.842L239.319 465.492L235.794 463.992L234.681 461.954L232.919 462.304L231.681 460.217L230.369 459.967L229.306 461.904L228.381 459.092L228.319 458.767L227.119 452.005L219.856 450.679L218.694 446.992L218.269 448.892L212.056 448.367L209.994 441.154L206.644 436.254L198.844 431.217L196.069 426.617L186.619 421.142L185.206 421.442L185.806 422.954L185.044 421.455L184.969 414.529L190.344 413.279L187.994 409.542L191.294 409.117L193.369 405.492L192.056 402.705L193.194 402.392L192.919 400.179L191.044 398.405L194.556 398.429L192.019 391.554L189.856 390.692L190.594 389.167L188.256 388.354L189.481 386.917L186.531 387.804L184.919 386.429L186.856 382.842L191.531 379.23L190.331 376.054L191.256 374.967Z" fill="#85CAE8" stroke="#3CA7D5" stroke-width="1.25"/>
<path d="M508.169 514.492L508.681 515.067L512.319 517.279L512.356 517.704L509.881 518.867L507.994 523.767L502.931 522.917L502.119 519.654L504.006 516.242L504.456 515.442L504.856 515.229L505.719 515.029L507.319 513.742L507.531 514.292L508.069 514.354L508.169 514.492ZM526.369 600.992L528.131 598.029L526.594 596.242L528.031 595.292L524.669 590.592L520.481 592.917L511.219 593.192L507.069 586.054L504.481 585.567L503.119 587.504L503.744 585.754L502.494 586.492L501.419 583.954L502.281 587.104L499.719 585.742L501.431 587.742L498.556 588.867L500.944 588.704L500.106 589.554L502.331 590.979L504.331 589.242L500.156 593.004L486.956 590.692L485.706 589.242L487.394 586.292L484.419 584.154L468.694 583.579L469.244 580.767L473.494 578.704L472.981 576.767L474.019 578.154L480.669 574.304L481.206 572.654L478.831 571.829L481.919 566.592L484.756 565.879L489.319 567.429L488.531 564.567L491.369 556.029L490.031 554.467L498.981 547.542L498.969 545.742L500.556 545.667L497.544 540.154L494.119 539.017L494.169 531.392L493.431 529.454L491.656 529.367L490.431 525.392L490.494 521.092L497.656 522.304L499.231 528.504L511.731 522.717L514.256 524.892L516.456 522.579L517.281 522.192L516.519 528.192L520.544 529.692L521.556 528.242L524.094 529.992L527.056 529.467L528.594 530.479L528.494 533.729L531.219 533.979L532.231 536.317L536.719 535.354L539.844 531.117L541.806 532.817L541.369 534.067L543.819 534.367L544.031 533.129L541.981 532.554L544.219 530.779L544.231 525.667H542.181L541.631 523.229L540.144 522.829L541.244 520.854L537.019 521.092L535.644 519.604L534.181 520.554L530.919 517.867L530.331 514.229L533.331 514.654L534.419 513.367L532.681 512.604L532.344 508.879L540.444 510.892L541.194 508.817L543.031 508.654L539.556 505.642L542.194 500.717L541.944 497.817L546.406 498.742L547.456 497.067L549.544 497.692L551.669 495.004L550.031 493.842L551.494 489.979L554.394 490.929L557.944 489.904L559.456 488.367L557.856 486.667L561.394 484.417L563.406 485.842L567.431 482.317L573.319 483.217L575.606 481.617L578.944 483.004L579.069 476.829L577.231 475.767L577.294 472.479L571.094 471.204L573.231 463.554L575.744 464.467L577.781 463.354L579.419 467.242L583.894 468.579L585.744 468.354L585.419 465.579L586.981 464.379L588.606 465.079L590.494 463.317L593.231 464.404L595.431 471.029L599.106 471.442L599.456 479.404L605.294 483.429L607.719 483.892L609.031 482.567L613.531 485.392L612.356 487.892L616.306 495.592L610.394 496.029L610.669 500.217L604.844 506.754L606.019 510.254L609.669 513.904L606.781 514.504L606.506 518.779L612.069 524.729L612.694 527.929L622.056 530.417L626.819 534.779L630.119 534.392L630.869 536.617L634.356 536.842L634.669 535.529L644.419 534.142L645.369 532.179L647.819 532.329L646.906 535.467L649.406 538.867L648.931 541.867L646.719 542.854L646.169 546.767L641.744 549.092L641.294 552.379L638.119 554.054L639.919 560.529L633.469 565.092L629.981 565.554L629.681 568.154L628.756 565.979L628.194 567.492L624.969 567.217L623.244 569.967L620.544 569.792L618.719 574.517L619.931 577.004L618.681 577.729L617.494 575.654L614.394 578.204L613.231 577.067L610.469 577.704L609.131 579.704L610.156 580.917L606.769 585.767L601.481 587.204L599.194 586.192L597.706 591.517L590.356 596.892L596.719 597.292L595.056 598.979L595.881 602.054L593.844 602.979L594.106 604.329L592.756 605.004L589.669 602.792L586.306 605.504L580.494 605.967L579.431 610.079L574.769 607.617L570.244 608.054L568.344 611.567L568.606 614.292L565.494 614.142L567.269 613.054L567.006 610.579L561.656 610.654L560.631 608.692L556.806 608.954L556.556 607.367L554.481 608.942L557.931 611.379L554.994 610.604L553.344 612.892L551.731 612.667L549.894 611.329L550.681 608.042L548.519 607.979L548.806 606.367L544.806 606.029L544.331 603.467L540.981 602.992L540.056 604.879L536.506 601.017L534.606 602.267L526.369 600.992Z" fill="#85CAE8" stroke="#3CA7D5" stroke-width="1.25"/>
<path d="M451.531 378.004L451.081 382.604L455.356 383.479L456.219 385.979L462.106 383.779L466.019 385.642L467.544 384.104L468.481 385.354L469.956 384.617L469.719 386.779L471.044 386.954L476.094 384.742L477.806 376.517L480.556 376.417L482.906 378.629L486.244 376.667L488.831 378.792L489.819 376.129L492.031 375.742L493.631 377.804L492.019 379.279L494.956 381.192L494.094 384.079L496.119 385.754L497.231 385.442L505.594 359.804L506.094 361.129L507.831 360.079L511.594 362.392L517.294 360.892L517.356 359.754L519.344 360.767L520.869 364.342L524.944 365.217L524.144 367.704L528.181 370.017L527.356 370.917L529.556 375.392L530.619 372.592L531.281 375.029L533.269 375.017L533.194 378.854L536.581 378.542L541.981 372.842L542.169 374.379L545.656 375.492L546.256 379.117L553.744 378.829L563.881 367.504L569.344 371.192L565.831 377.329L566.994 379.879L559.506 382.454L558.706 383.954L560.269 385.079L558.344 389.042L563.244 387.292L567.206 388.192L575.869 381.817L576.606 379.504L574.069 379.854L573.406 375.954L571.981 375.329L573.644 371.717L587.481 364.442L595.944 364.617L603.106 366.679L600.544 372.054L605.419 377.629L602.269 383.354L601.906 388.292L607.169 389.267L605.981 394.954L609.044 393.742L614.369 401.967L614.706 404.279L612.231 408.104L607.906 410.429L603.094 410.717L602.406 418.979L608.019 424.454L612.406 425.329L611.219 429.167L612.419 435.292L615.244 436.054L614.969 437.704L617.594 437.892L618.356 440.579L622.131 442.592L618.131 448.367L619.419 453.629L616.031 456.879L612.481 456.267L609.569 459.979L606.844 460.079L606.831 462.404L604.544 463.104L600.331 460.729L593.244 464.367L590.506 463.279L588.619 465.042L586.994 464.342L585.431 465.542L585.756 468.317L583.906 468.542L579.431 467.204L577.794 463.317L575.756 464.429L573.244 463.517L571.106 471.167L577.306 472.442L577.244 475.729L579.081 476.792L578.956 482.967L575.619 481.579L573.331 483.179L567.444 482.279L563.419 485.804L561.406 484.379L557.869 486.629L559.469 488.329L557.956 489.867L554.406 490.892L551.506 489.942L550.044 493.804L551.681 494.967L549.556 497.654L547.469 497.029L546.419 498.704L541.956 497.779L542.206 500.679L539.569 505.604L543.044 508.617L541.206 508.779L540.456 510.854L532.356 508.842L532.694 512.567L534.431 513.329L533.344 514.617L530.344 514.192L530.931 517.829L534.194 520.517L535.656 519.567L537.031 521.054L541.256 520.817L540.156 522.792L541.644 523.192L542.194 525.629H544.244L544.231 530.742L541.994 532.517L544.044 533.092L543.831 534.329L541.381 534.029L541.819 532.779L539.856 531.079L536.731 535.317L532.244 536.279L531.231 533.942L528.506 533.692L528.606 530.442L527.069 529.429L524.106 529.954L521.569 528.204L520.556 529.654L516.531 528.154L517.294 522.154L516.469 522.542L514.269 524.854L511.744 522.679L499.244 528.467L497.669 522.267L490.506 521.054L490.444 525.354L482.969 520.067L480.269 520.454L479.481 524.442L477.281 523.917L477.094 519.867L473.681 520.454L470.094 525.754L463.481 520.579L459.231 521.854L458.831 516.629L460.306 515.617L456.119 510.779L454.269 503.629L451.694 501.917L449.531 491.029L452.756 489.254L454.094 485.004L456.119 486.117L455.819 484.567L456.731 485.517L458.194 484.517L458.531 481.692L464.856 481.629L468.394 475.042L473.006 474.317L472.106 470.929L476.431 469.667L474.719 466.742L475.994 464.554L477.419 464.654V463.992L476.119 461.804L478.656 462.354L479.319 464.292L480.444 463.629L479.931 460.567L482.169 456.004L479.331 452.179L476.831 453.542L474.831 452.179L475.956 450.204L473.919 449.004L475.781 447.642L474.081 445.292L470.844 446.042L468.819 443.754L465.981 443.492L464.244 444.129L464.706 445.542L460.944 446.029L460.419 447.679L457.806 446.704L457.681 448.267L455.981 445.042L454.031 444.729L451.781 447.817L450.994 443.329L454.844 440.329L455.956 435.917L453.306 429.829L447.594 425.879L445.156 421.467L445.344 418.979L440.581 414.067L442.319 412.404L441.956 408.204L443.994 407.017L440.794 403.742L441.194 400.817L445.681 400.542L447.931 398.617L446.594 394.579L447.431 391.954L445.956 390.217L446.769 386.404L444.656 380.704L450.681 378.104L451.131 378.042L451.531 378.004ZM504.831 515.204L504.431 515.417L503.981 516.217L502.094 519.629L502.906 522.892L507.969 523.742L509.856 518.842L512.331 517.679L512.294 517.254L508.656 515.042L508.031 514.317L507.494 514.254L507.281 513.704L505.681 514.992L504.831 515.204Z" fill="#85CAE8" stroke="#3CA7D5" stroke-width="1.25"/>
</g>
<defs>
<clipPath id="clip0_120_676">
<rect width="745.519" height="730.681" fill="white"/>
</clipPath>
</defs>
</svg>
